<?xml version="1.0" encoding="utf-8" standalone="no"?>
<!DOCTYPE svg PUBLIC "-//W3C//DTD SVG 1.1//EN"
  "http://www.w3.org/Graphics/SVG/1.1/DTD/svg11.dtd">
<svg xmlns:xlink="http://www.w3.org/1999/xlink" width="720.58125pt" height="337.074375pt" viewBox="0 0 720.58125 337.074375" xmlns="http://www.w3.org/2000/svg" version="1.1">
 <metadata>
  <rdf:RDF xmlns:dc="http://purl.org/dc/elements/1.1/" xmlns:cc="http://creativecommons.org/ns#" xmlns:rdf="http://www.w3.org/1999/02/22-rdf-syntax-ns#">
   <cc:Work>
    <dc:type rdf:resource="http://purl.org/dc/dcmitype/StillImage"/>
    <dc:date>2026-05-14T06:31:23.075505</dc:date>
    <dc:format>image/svg+xml</dc:format>
    <dc:creator>
     <cc:Agent>
      <dc:title>Matplotlib v3.10.0, https://matplotlib.org/</dc:title>
     </cc:Agent>
    </dc:creator>
   </cc:Work>
  </rdf:RDF>
 </metadata>
 <defs>
  <style type="text/css">*{stroke-linejoin: round; stroke-linecap: butt}</style>
 </defs>
 <g id="figure_1">
  <g id="patch_1">
   <path d="M 0 337.074375 
L 720.58125 337.074375 
L 720.58125 0 
L 0 0 
z
" style="fill: #ffffff"/>
  </g>
  <g id="axes_1">
   <g id="patch_2">
    <path d="M 43.78125 299.518125 
L 713.38125 299.518125 
L 713.38125 22.318125 
L 43.78125 22.318125 
z
" style="fill: #ffffff"/>
   </g>
   <g id="matplotlib.axis_1">
    <g id="xtick_1">
     <g id="line2d_1">
      <defs>
       <path id="me2bcb7cf34" d="M 0 0 
L 0 3.5 
" style="stroke: #000000; stroke-width: 0.8"/>
      </defs>
      <g>
       <use xlink:href="#me2bcb7cf34" x="129.515138" y="299.518125" style="stroke: #000000; stroke-width: 0.8"/>
      </g>
     </g>
     <g id="text_1">
      <!-- 2016 -->
      <g transform="translate(116.790138 314.116563) scale(0.1 -0.1)">
       <defs>
        <path id="DejaVuSans-32" d="M 1228 531 
L 3431 531 
L 3431 0 
L 469 0 
L 469 531 
Q 828 903 1448 1529 
Q 2069 2156 2228 2338 
Q 2531 2678 2651 2914 
Q 2772 3150 2772 3378 
Q 2772 3750 2511 3984 
Q 2250 4219 1831 4219 
Q 1534 4219 1204 4116 
Q 875 4013 500 3803 
L 500 4441 
Q 881 4594 1212 4672 
Q 1544 4750 1819 4750 
Q 2544 4750 2975 4387 
Q 3406 4025 3406 3419 
Q 3406 3131 3298 2873 
Q 3191 2616 2906 2266 
Q 2828 2175 2409 1742 
Q 1991 1309 1228 531 
z
" transform="scale(0.015625)"/>
        <path id="DejaVuSans-30" d="M 2034 4250 
Q 1547 4250 1301 3770 
Q 1056 3291 1056 2328 
Q 1056 1369 1301 889 
Q 1547 409 2034 409 
Q 2525 409 2770 889 
Q 3016 1369 3016 2328 
Q 3016 3291 2770 3770 
Q 2525 4250 2034 4250 
z
M 2034 4750 
Q 2819 4750 3233 4129 
Q 3647 3509 3647 2328 
Q 3647 1150 3233 529 
Q 2819 -91 2034 -91 
Q 1250 -91 836 529 
Q 422 1150 422 2328 
Q 422 3509 836 4129 
Q 1250 4750 2034 4750 
z
" transform="scale(0.015625)"/>
        <path id="DejaVuSans-31" d="M 794 531 
L 1825 531 
L 1825 4091 
L 703 3866 
L 703 4441 
L 1819 4666 
L 2450 4666 
L 2450 531 
L 3481 531 
L 3481 0 
L 794 0 
L 794 531 
z
" transform="scale(0.015625)"/>
        <path id="DejaVuSans-36" d="M 2113 2584 
Q 1688 2584 1439 2293 
Q 1191 2003 1191 1497 
Q 1191 994 1439 701 
Q 1688 409 2113 409 
Q 2538 409 2786 701 
Q 3034 994 3034 1497 
Q 3034 2003 2786 2293 
Q 2538 2584 2113 2584 
z
M 3366 4563 
L 3366 3988 
Q 3128 4100 2886 4159 
Q 2644 4219 2406 4219 
Q 1781 4219 1451 3797 
Q 1122 3375 1075 2522 
Q 1259 2794 1537 2939 
Q 1816 3084 2150 3084 
Q 2853 3084 3261 2657 
Q 3669 2231 3669 1497 
Q 3669 778 3244 343 
Q 2819 -91 2113 -91 
Q 1303 -91 875 529 
Q 447 1150 447 2328 
Q 447 3434 972 4092 
Q 1497 4750 2381 4750 
Q 2619 4750 2861 4703 
Q 3103 4656 3366 4563 
z
" transform="scale(0.015625)"/>
       </defs>
       <use xlink:href="#DejaVuSans-32"/>
       <use xlink:href="#DejaVuSans-30" transform="translate(63.623047 0)"/>
       <use xlink:href="#DejaVuSans-31" transform="translate(127.246094 0)"/>
       <use xlink:href="#DejaVuSans-36" transform="translate(190.869141 0)"/>
      </g>
     </g>
    </g>
    <g id="xtick_2">
     <g id="line2d_2">
      <g>
       <use xlink:href="#me2bcb7cf34" x="240.261688" y="299.518125" style="stroke: #000000; stroke-width: 0.8"/>
      </g>
     </g>
     <g id="text_2">
      <!-- 2018 -->
      <g transform="translate(227.536688 314.116563) scale(0.1 -0.1)">
       <defs>
        <path id="DejaVuSans-38" d="M 2034 2216 
Q 1584 2216 1326 1975 
Q 1069 1734 1069 1313 
Q 1069 891 1326 650 
Q 1584 409 2034 409 
Q 2484 409 2743 651 
Q 3003 894 3003 1313 
Q 3003 1734 2745 1975 
Q 2488 2216 2034 2216 
z
M 1403 2484 
Q 997 2584 770 2862 
Q 544 3141 544 3541 
Q 544 4100 942 4425 
Q 1341 4750 2034 4750 
Q 2731 4750 3128 4425 
Q 3525 4100 3525 3541 
Q 3525 3141 3298 2862 
Q 3072 2584 2669 2484 
Q 3125 2378 3379 2068 
Q 3634 1759 3634 1313 
Q 3634 634 3220 271 
Q 2806 -91 2034 -91 
Q 1263 -91 848 271 
Q 434 634 434 1313 
Q 434 1759 690 2068 
Q 947 2378 1403 2484 
z
M 1172 3481 
Q 1172 3119 1398 2916 
Q 1625 2713 2034 2713 
Q 2441 2713 2670 2916 
Q 2900 3119 2900 3481 
Q 2900 3844 2670 4047 
Q 2441 4250 2034 4250 
Q 1625 4250 1398 4047 
Q 1172 3844 1172 3481 
z
" transform="scale(0.015625)"/>
       </defs>
       <use xlink:href="#DejaVuSans-32"/>
       <use xlink:href="#DejaVuSans-30" transform="translate(63.623047 0)"/>
       <use xlink:href="#DejaVuSans-31" transform="translate(127.246094 0)"/>
       <use xlink:href="#DejaVuSans-38" transform="translate(190.869141 0)"/>
      </g>
     </g>
    </g>
    <g id="xtick_3">
     <g id="line2d_3">
      <g>
       <use xlink:href="#me2bcb7cf34" x="350.856738" y="299.518125" style="stroke: #000000; stroke-width: 0.8"/>
      </g>
     </g>
     <g id="text_3">
      <!-- 2020 -->
      <g transform="translate(338.131738 314.116563) scale(0.1 -0.1)">
       <use xlink:href="#DejaVuSans-32"/>
       <use xlink:href="#DejaVuSans-30" transform="translate(63.623047 0)"/>
       <use xlink:href="#DejaVuSans-32" transform="translate(127.246094 0)"/>
       <use xlink:href="#DejaVuSans-30" transform="translate(190.869141 0)"/>
      </g>
     </g>
    </g>
    <g id="xtick_4">
     <g id="line2d_4">
      <g>
       <use xlink:href="#me2bcb7cf34" x="461.603287" y="299.518125" style="stroke: #000000; stroke-width: 0.8"/>
      </g>
     </g>
     <g id="text_4">
      <!-- 2022 -->
      <g transform="translate(448.878287 314.116563) scale(0.1 -0.1)">
       <use xlink:href="#DejaVuSans-32"/>
       <use xlink:href="#DejaVuSans-30" transform="translate(63.623047 0)"/>
       <use xlink:href="#DejaVuSans-32" transform="translate(127.246094 0)"/>
       <use xlink:href="#DejaVuSans-32" transform="translate(190.869141 0)"/>
      </g>
     </g>
    </g>
    <g id="xtick_5">
     <g id="line2d_5">
      <g>
       <use xlink:href="#me2bcb7cf34" x="572.198337" y="299.518125" style="stroke: #000000; stroke-width: 0.8"/>
      </g>
     </g>
     <g id="text_5">
      <!-- 2024 -->
      <g transform="translate(559.473337 314.116563) scale(0.1 -0.1)">
       <defs>
        <path id="DejaVuSans-34" d="M 2419 4116 
L 825 1625 
L 2419 1625 
L 2419 4116 
z
M 2253 4666 
L 3047 4666 
L 3047 1625 
L 3713 1625 
L 3713 1100 
L 3047 1100 
L 3047 0 
L 2419 0 
L 2419 1100 
L 313 1100 
L 313 1709 
L 2253 4666 
z
" transform="scale(0.015625)"/>
       </defs>
       <use xlink:href="#DejaVuSans-32"/>
       <use xlink:href="#DejaVuSans-30" transform="translate(63.623047 0)"/>
       <use xlink:href="#DejaVuSans-32" transform="translate(127.246094 0)"/>
       <use xlink:href="#DejaVuSans-34" transform="translate(190.869141 0)"/>
      </g>
     </g>
    </g>
    <g id="xtick_6">
     <g id="line2d_6">
      <g>
       <use xlink:href="#me2bcb7cf34" x="682.944886" y="299.518125" style="stroke: #000000; stroke-width: 0.8"/>
      </g>
     </g>
     <g id="text_6">
      <!-- 2026 -->
      <g transform="translate(670.219886 314.116563) scale(0.1 -0.1)">
       <use xlink:href="#DejaVuSans-32"/>
       <use xlink:href="#DejaVuSans-30" transform="translate(63.623047 0)"/>
       <use xlink:href="#DejaVuSans-32" transform="translate(127.246094 0)"/>
       <use xlink:href="#DejaVuSans-36" transform="translate(190.869141 0)"/>
      </g>
     </g>
    </g>
    <g id="text_7">
     <!-- Date -->
     <g transform="translate(366.630469 327.794688) scale(0.1 -0.1)">
      <defs>
       <path id="DejaVuSans-44" d="M 1259 4147 
L 1259 519 
L 2022 519 
Q 2988 519 3436 956 
Q 3884 1394 3884 2338 
Q 3884 3275 3436 3711 
Q 2988 4147 2022 4147 
L 1259 4147 
z
M 628 4666 
L 1925 4666 
Q 3281 4666 3915 4102 
Q 4550 3538 4550 2338 
Q 4550 1131 3912 565 
Q 3275 0 1925 0 
L 628 0 
L 628 4666 
z
" transform="scale(0.015625)"/>
       <path id="DejaVuSans-61" d="M 2194 1759 
Q 1497 1759 1228 1600 
Q 959 1441 959 1056 
Q 959 750 1161 570 
Q 1363 391 1709 391 
Q 2188 391 2477 730 
Q 2766 1069 2766 1631 
L 2766 1759 
L 2194 1759 
z
M 3341 1997 
L 3341 0 
L 2766 0 
L 2766 531 
Q 2569 213 2275 61 
Q 1981 -91 1556 -91 
Q 1019 -91 701 211 
Q 384 513 384 1019 
Q 384 1609 779 1909 
Q 1175 2209 1959 2209 
L 2766 2209 
L 2766 2266 
Q 2766 2663 2505 2880 
Q 2244 3097 1772 3097 
Q 1472 3097 1187 3025 
Q 903 2953 641 2809 
L 641 3341 
Q 956 3463 1253 3523 
Q 1550 3584 1831 3584 
Q 2591 3584 2966 3190 
Q 3341 2797 3341 1997 
z
" transform="scale(0.015625)"/>
       <path id="DejaVuSans-74" d="M 1172 4494 
L 1172 3500 
L 2356 3500 
L 2356 3053 
L 1172 3053 
L 1172 1153 
Q 1172 725 1289 603 
Q 1406 481 1766 481 
L 2356 481 
L 2356 0 
L 1766 0 
Q 1100 0 847 248 
Q 594 497 594 1153 
L 594 3053 
L 172 3053 
L 172 3500 
L 594 3500 
L 594 4494 
L 1172 4494 
z
" transform="scale(0.015625)"/>
       <path id="DejaVuSans-65" d="M 3597 1894 
L 3597 1613 
L 953 1613 
Q 991 1019 1311 708 
Q 1631 397 2203 397 
Q 2534 397 2845 478 
Q 3156 559 3463 722 
L 3463 178 
Q 3153 47 2828 -22 
Q 2503 -91 2169 -91 
Q 1331 -91 842 396 
Q 353 884 353 1716 
Q 353 2575 817 3079 
Q 1281 3584 2069 3584 
Q 2775 3584 3186 3129 
Q 3597 2675 3597 1894 
z
M 3022 2063 
Q 3016 2534 2758 2815 
Q 2500 3097 2075 3097 
Q 1594 3097 1305 2825 
Q 1016 2553 972 2059 
L 3022 2063 
z
" transform="scale(0.015625)"/>
      </defs>
      <use xlink:href="#DejaVuSans-44"/>
      <use xlink:href="#DejaVuSans-61" transform="translate(77.001953 0)"/>
      <use xlink:href="#DejaVuSans-74" transform="translate(138.28125 0)"/>
      <use xlink:href="#DejaVuSans-65" transform="translate(177.490234 0)"/>
     </g>
    </g>
   </g>
   <g id="matplotlib.axis_2">
    <g id="ytick_1">
     <g id="line2d_7">
      <defs>
       <path id="m91ada85100" d="M 0 0 
L -3.5 0 
" style="stroke: #000000; stroke-width: 0.8"/>
      </defs>
      <g>
       <use xlink:href="#m91ada85100" x="43.78125" y="288.362847" style="stroke: #000000; stroke-width: 0.8"/>
      </g>
     </g>
     <g id="text_8">
      <!-- 0.0 -->
      <g transform="translate(20.878125 292.162066) scale(0.1 -0.1)">
       <defs>
        <path id="DejaVuSans-2e" d="M 684 794 
L 1344 794 
L 1344 0 
L 684 0 
L 684 794 
z
" transform="scale(0.015625)"/>
       </defs>
       <use xlink:href="#DejaVuSans-30"/>
       <use xlink:href="#DejaVuSans-2e" transform="translate(63.623047 0)"/>
       <use xlink:href="#DejaVuSans-30" transform="translate(95.410156 0)"/>
      </g>
     </g>
    </g>
    <g id="ytick_2">
     <g id="line2d_8">
      <g>
       <use xlink:href="#m91ada85100" x="43.78125" y="256.038657" style="stroke: #000000; stroke-width: 0.8"/>
      </g>
     </g>
     <g id="text_9">
      <!-- 0.2 -->
      <g transform="translate(20.878125 259.837875) scale(0.1 -0.1)">
       <use xlink:href="#DejaVuSans-30"/>
       <use xlink:href="#DejaVuSans-2e" transform="translate(63.623047 0)"/>
       <use xlink:href="#DejaVuSans-32" transform="translate(95.410156 0)"/>
      </g>
     </g>
    </g>
    <g id="ytick_3">
     <g id="line2d_9">
      <g>
       <use xlink:href="#m91ada85100" x="43.78125" y="223.714466" style="stroke: #000000; stroke-width: 0.8"/>
      </g>
     </g>
     <g id="text_10">
      <!-- 0.4 -->
      <g transform="translate(20.878125 227.513685) scale(0.1 -0.1)">
       <use xlink:href="#DejaVuSans-30"/>
       <use xlink:href="#DejaVuSans-2e" transform="translate(63.623047 0)"/>
       <use xlink:href="#DejaVuSans-34" transform="translate(95.410156 0)"/>
      </g>
     </g>
    </g>
    <g id="ytick_4">
     <g id="line2d_10">
      <g>
       <use xlink:href="#m91ada85100" x="43.78125" y="191.390276" style="stroke: #000000; stroke-width: 0.8"/>
      </g>
     </g>
     <g id="text_11">
      <!-- 0.6 -->
      <g transform="translate(20.878125 195.189495) scale(0.1 -0.1)">
       <use xlink:href="#DejaVuSans-30"/>
       <use xlink:href="#DejaVuSans-2e" transform="translate(63.623047 0)"/>
       <use xlink:href="#DejaVuSans-36" transform="translate(95.410156 0)"/>
      </g>
     </g>
    </g>
    <g id="ytick_5">
     <g id="line2d_11">
      <g>
       <use xlink:href="#m91ada85100" x="43.78125" y="159.066086" style="stroke: #000000; stroke-width: 0.8"/>
      </g>
     </g>
     <g id="text_12">
      <!-- 0.8 -->
      <g transform="translate(20.878125 162.865305) scale(0.1 -0.1)">
       <use xlink:href="#DejaVuSans-30"/>
       <use xlink:href="#DejaVuSans-2e" transform="translate(63.623047 0)"/>
       <use xlink:href="#DejaVuSans-38" transform="translate(95.410156 0)"/>
      </g>
     </g>
    </g>
    <g id="ytick_6">
     <g id="line2d_12">
      <g>
       <use xlink:href="#m91ada85100" x="43.78125" y="126.741896" style="stroke: #000000; stroke-width: 0.8"/>
      </g>
     </g>
     <g id="text_13">
      <!-- 1.0 -->
      <g transform="translate(20.878125 130.541114) scale(0.1 -0.1)">
       <use xlink:href="#DejaVuSans-31"/>
       <use xlink:href="#DejaVuSans-2e" transform="translate(63.623047 0)"/>
       <use xlink:href="#DejaVuSans-30" transform="translate(95.410156 0)"/>
      </g>
     </g>
    </g>
    <g id="ytick_7">
     <g id="line2d_13">
      <g>
       <use xlink:href="#m91ada85100" x="43.78125" y="94.417705" style="stroke: #000000; stroke-width: 0.8"/>
      </g>
     </g>
     <g id="text_14">
      <!-- 1.2 -->
      <g transform="translate(20.878125 98.216924) scale(0.1 -0.1)">
       <use xlink:href="#DejaVuSans-31"/>
       <use xlink:href="#DejaVuSans-2e" transform="translate(63.623047 0)"/>
       <use xlink:href="#DejaVuSans-32" transform="translate(95.410156 0)"/>
      </g>
     </g>
    </g>
    <g id="ytick_8">
     <g id="line2d_14">
      <g>
       <use xlink:href="#m91ada85100" x="43.78125" y="62.093515" style="stroke: #000000; stroke-width: 0.8"/>
      </g>
     </g>
     <g id="text_15">
      <!-- 1.4 -->
      <g transform="translate(20.878125 65.892734) scale(0.1 -0.1)">
       <use xlink:href="#DejaVuSans-31"/>
       <use xlink:href="#DejaVuSans-2e" transform="translate(63.623047 0)"/>
       <use xlink:href="#DejaVuSans-34" transform="translate(95.410156 0)"/>
      </g>
     </g>
    </g>
    <g id="ytick_9">
     <g id="line2d_15">
      <g>
       <use xlink:href="#m91ada85100" x="43.78125" y="29.769325" style="stroke: #000000; stroke-width: 0.8"/>
      </g>
     </g>
     <g id="text_16">
      <!-- 1.6 -->
      <g transform="translate(20.878125 33.568544) scale(0.1 -0.1)">
       <use xlink:href="#DejaVuSans-31"/>
       <use xlink:href="#DejaVuSans-2e" transform="translate(63.623047 0)"/>
       <use xlink:href="#DejaVuSans-36" transform="translate(95.410156 0)"/>
      </g>
     </g>
    </g>
    <g id="text_17">
     <!-- Shares Traded -->
     <g transform="translate(14.798438 196.399375) rotate(-90) scale(0.1 -0.1)">
      <defs>
       <path id="DejaVuSans-53" d="M 3425 4513 
L 3425 3897 
Q 3066 4069 2747 4153 
Q 2428 4238 2131 4238 
Q 1616 4238 1336 4038 
Q 1056 3838 1056 3469 
Q 1056 3159 1242 3001 
Q 1428 2844 1947 2747 
L 2328 2669 
Q 3034 2534 3370 2195 
Q 3706 1856 3706 1288 
Q 3706 609 3251 259 
Q 2797 -91 1919 -91 
Q 1588 -91 1214 -16 
Q 841 59 441 206 
L 441 856 
Q 825 641 1194 531 
Q 1563 422 1919 422 
Q 2459 422 2753 634 
Q 3047 847 3047 1241 
Q 3047 1584 2836 1778 
Q 2625 1972 2144 2069 
L 1759 2144 
Q 1053 2284 737 2584 
Q 422 2884 422 3419 
Q 422 4038 858 4394 
Q 1294 4750 2059 4750 
Q 2388 4750 2728 4690 
Q 3069 4631 3425 4513 
z
" transform="scale(0.015625)"/>
       <path id="DejaVuSans-68" d="M 3513 2113 
L 3513 0 
L 2938 0 
L 2938 2094 
Q 2938 2591 2744 2837 
Q 2550 3084 2163 3084 
Q 1697 3084 1428 2787 
Q 1159 2491 1159 1978 
L 1159 0 
L 581 0 
L 581 4863 
L 1159 4863 
L 1159 2956 
Q 1366 3272 1645 3428 
Q 1925 3584 2291 3584 
Q 2894 3584 3203 3211 
Q 3513 2838 3513 2113 
z
" transform="scale(0.015625)"/>
       <path id="DejaVuSans-72" d="M 2631 2963 
Q 2534 3019 2420 3045 
Q 2306 3072 2169 3072 
Q 1681 3072 1420 2755 
Q 1159 2438 1159 1844 
L 1159 0 
L 581 0 
L 581 3500 
L 1159 3500 
L 1159 2956 
Q 1341 3275 1631 3429 
Q 1922 3584 2338 3584 
Q 2397 3584 2469 3576 
Q 2541 3569 2628 3553 
L 2631 2963 
z
" transform="scale(0.015625)"/>
       <path id="DejaVuSans-73" d="M 2834 3397 
L 2834 2853 
Q 2591 2978 2328 3040 
Q 2066 3103 1784 3103 
Q 1356 3103 1142 2972 
Q 928 2841 928 2578 
Q 928 2378 1081 2264 
Q 1234 2150 1697 2047 
L 1894 2003 
Q 2506 1872 2764 1633 
Q 3022 1394 3022 966 
Q 3022 478 2636 193 
Q 2250 -91 1575 -91 
Q 1294 -91 989 -36 
Q 684 19 347 128 
L 347 722 
Q 666 556 975 473 
Q 1284 391 1588 391 
Q 1994 391 2212 530 
Q 2431 669 2431 922 
Q 2431 1156 2273 1281 
Q 2116 1406 1581 1522 
L 1381 1569 
Q 847 1681 609 1914 
Q 372 2147 372 2553 
Q 372 3047 722 3315 
Q 1072 3584 1716 3584 
Q 2034 3584 2315 3537 
Q 2597 3491 2834 3397 
z
" transform="scale(0.015625)"/>
       <path id="DejaVuSans-20" transform="scale(0.015625)"/>
       <path id="DejaVuSans-54" d="M -19 4666 
L 3928 4666 
L 3928 4134 
L 2272 4134 
L 2272 0 
L 1638 0 
L 1638 4134 
L -19 4134 
L -19 4666 
z
" transform="scale(0.015625)"/>
       <path id="DejaVuSans-64" d="M 2906 2969 
L 2906 4863 
L 3481 4863 
L 3481 0 
L 2906 0 
L 2906 525 
Q 2725 213 2448 61 
Q 2172 -91 1784 -91 
Q 1150 -91 751 415 
Q 353 922 353 1747 
Q 353 2572 751 3078 
Q 1150 3584 1784 3584 
Q 2172 3584 2448 3432 
Q 2725 3281 2906 2969 
z
M 947 1747 
Q 947 1113 1208 752 
Q 1469 391 1925 391 
Q 2381 391 2643 752 
Q 2906 1113 2906 1747 
Q 2906 2381 2643 2742 
Q 2381 3103 1925 3103 
Q 1469 3103 1208 2742 
Q 947 2381 947 1747 
z
" transform="scale(0.015625)"/>
      </defs>
      <use xlink:href="#DejaVuSans-53"/>
      <use xlink:href="#DejaVuSans-68" transform="translate(63.476562 0)"/>
      <use xlink:href="#DejaVuSans-61" transform="translate(126.855469 0)"/>
      <use xlink:href="#DejaVuSans-72" transform="translate(188.134766 0)"/>
      <use xlink:href="#DejaVuSans-65" transform="translate(226.998047 0)"/>
      <use xlink:href="#DejaVuSans-73" transform="translate(288.521484 0)"/>
      <use xlink:href="#DejaVuSans-20" transform="translate(340.621094 0)"/>
      <use xlink:href="#DejaVuSans-54" transform="translate(372.408203 0)"/>
      <use xlink:href="#DejaVuSans-72" transform="translate(418.742188 0)"/>
      <use xlink:href="#DejaVuSans-61" transform="translate(459.855469 0)"/>
      <use xlink:href="#DejaVuSans-64" transform="translate(521.134766 0)"/>
      <use xlink:href="#DejaVuSans-65" transform="translate(584.611328 0)"/>
      <use xlink:href="#DejaVuSans-64" transform="translate(646.134766 0)"/>
     </g>
    </g>
    <g id="text_18">
     <!-- 1e9 -->
     <g transform="translate(43.78125 19.318125) scale(0.1 -0.1)">
      <defs>
       <path id="DejaVuSans-39" d="M 703 97 
L 703 672 
Q 941 559 1184 500 
Q 1428 441 1663 441 
Q 2288 441 2617 861 
Q 2947 1281 2994 2138 
Q 2813 1869 2534 1725 
Q 2256 1581 1919 1581 
Q 1219 1581 811 2004 
Q 403 2428 403 3163 
Q 403 3881 828 4315 
Q 1253 4750 1959 4750 
Q 2769 4750 3195 4129 
Q 3622 3509 3622 2328 
Q 3622 1225 3098 567 
Q 2575 -91 1691 -91 
Q 1453 -91 1209 -44 
Q 966 3 703 97 
z
M 1959 2075 
Q 2384 2075 2632 2365 
Q 2881 2656 2881 3163 
Q 2881 3666 2632 3958 
Q 2384 4250 1959 4250 
Q 1534 4250 1286 3958 
Q 1038 3666 1038 3163 
Q 1038 2656 1286 2365 
Q 1534 2075 1959 2075 
z
" transform="scale(0.015625)"/>
      </defs>
      <use xlink:href="#DejaVuSans-31"/>
      <use xlink:href="#DejaVuSans-65" transform="translate(63.623047 0)"/>
      <use xlink:href="#DejaVuSans-39" transform="translate(125.146484 0)"/>
     </g>
    </g>
   </g>
   <g id="line2d_16">
    <path d="M 74.217614 285.054491 
L 74.369114 281.689835 
L 74.823614 282.492976 
L 75.126614 278.949818 
L 75.278114 280.646302 
L 75.429614 279.983035 
L 75.884114 282.691578 
L 76.035614 281.154884 
L 76.187115 281.640878 
L 76.338615 274.381352 
L 76.490115 278.010294 
L 76.944615 281.339167 
L 77.247615 276.927501 
L 77.399115 280.448194 
L 77.550615 278.573112 
L 78.156615 279.596628 
L 78.459616 276.296155 
L 78.611116 268.927531 
L 79.065616 273.705771 
L 79.217116 270.936205 
L 79.520116 276.891614 
L 79.671616 276.628744 
L 80.126116 278.596199 
L 80.277616 272.986322 
L 80.429116 279.159536 
L 80.580616 276.87506 
L 80.732117 269.878357 
L 81.186617 279.032086 
L 81.489617 280.809188 
L 81.792617 278.04523 
L 82.247117 280.105832 
L 82.398617 278.802609 
L 82.550117 279.598158 
L 82.701617 275.937604 
L 82.853118 277.078589 
L 83.004618 272.137713 
L 83.459118 278.933752 
L 83.610618 269.180996 
L 83.762118 278.685775 
L 84.368118 279.790091 
L 84.519618 279.053604 
L 84.671118 279.415491 
L 84.822618 281.676916 
L 84.974118 279.483437 
L 85.428619 280.580168 
L 85.580119 280.646417 
L 85.731619 278.817375 
L 85.883119 280.009789 
L 86.034619 278.186761 
L 86.489119 281.415228 
L 86.640619 278.230678 
L 86.792119 279.637731 
L 86.943619 271.544379 
L 87.095119 275.51422 
L 87.54962 280.141476 
L 87.70112 278.997116 
L 87.85262 280.981122 
L 88.61012 280.671709 
L 88.76162 279.767916 
L 88.91312 280.968145 
L 89.06462 276.61557 
L 89.21612 279.599185 
L 89.670621 281.288179 
L 89.973621 277.63263 
L 90.125121 279.375207 
L 90.276621 279.102247 
L 90.731121 279.102891 
L 90.882621 279.768308 
L 91.034121 278.34651 
L 91.337121 279.911742 
L 91.791622 277.608272 
L 91.943122 275.845589 
L 92.094622 278.663931 
L 92.246122 273.467372 
L 92.852122 282.08651 
L 93.003622 281.991883 
L 93.155122 277.577796 
L 93.306622 278.624666 
L 93.458122 273.984494 
L 93.912622 270.827189 
L 94.064123 277.152012 
L 94.367123 279.562872 
L 94.518623 278.169271 
L 94.973123 280.901254 
L 95.124623 279.527133 
L 95.276123 281.451153 
L 95.427623 280.005687 
L 95.579123 270.558105 
L 96.185123 282.677633 
L 96.336624 280.641811 
L 96.488124 275.661247 
L 96.639624 278.975033 
L 97.094124 282.583938 
L 97.245624 277.566679 
L 97.397124 276.487599 
L 97.700124 278.679117 
L 98.154624 278.385458 
L 98.457624 280.325038 
L 98.609125 276.160809 
L 98.760625 279.16657 
L 99.215125 280.082969 
L 99.366625 280.679068 
L 99.669625 279.723148 
L 99.821125 281.039843 
L 100.275625 278.436219 
L 100.427125 278.397184 
L 100.578625 280.253128 
L 100.730126 274.855379 
L 100.881626 279.974387 
L 101.639126 278.898548 
L 101.942126 282.296918 
L 102.396626 281.450345 
L 102.548126 280.874017 
L 102.699626 278.393058 
L 102.851126 281.872261 
L 103.002627 280.707586 
L 103.457127 281.210543 
L 103.760127 282.007605 
L 103.911627 278.705288 
L 104.063127 282.253608 
L 104.517627 279.094095 
L 104.669127 281.8832 
L 104.820627 281.049403 
L 104.972127 281.689196 
L 105.123627 278.689765 
L 105.578128 280.550404 
L 105.729628 273.36855 
L 105.881128 279.540979 
L 106.032628 271.15532 
L 106.184128 269.387325 
L 106.638628 273.154226 
L 106.790128 271.532815 
L 106.941628 277.531264 
L 107.093128 278.743537 
L 107.244628 281.630757 
L 107.699129 281.393555 
L 107.850629 276.0129 
L 108.153629 279.23199 
L 108.305129 277.296281 
L 108.759629 268.533902 
L 109.062629 279.575912 
L 109.365629 274.364422 
L 109.82013 266.009445 
L 109.97163 268.45447 
L 110.12313 274.793769 
L 110.27463 269.700121 
L 110.42613 275.984713 
L 110.88063 277.181039 
L 111.18363 273.451167 
L 111.33513 277.434272 
L 111.48663 274.094166 
L 111.941131 276.890168 
L 112.244131 274.435731 
L 112.395631 278.244977 
L 112.547131 278.292694 
L 113.001631 280.275713 
L 113.153131 278.33569 
L 113.304631 279.290583 
L 113.607631 271.883472 
L 114.062131 279.564112 
L 114.213632 277.56848 
L 115.122632 281.207869 
L 115.274132 268.673749 
L 115.577132 280.61492 
L 116.183132 278.037348 
L 116.486133 280.197817 
L 116.637633 280.140533 
L 116.789133 279.278658 
L 117.243633 279.982338 
L 117.546633 282.511557 
L 117.698133 280.995557 
L 117.849633 280.747427 
L 118.304133 283.016093 
L 118.455633 281.316113 
L 118.607134 276.081068 
L 118.910134 279.834185 
L 119.364634 280.528262 
L 119.516134 281.183941 
L 119.667634 274.015728 
L 119.970634 276.03454 
L 120.576634 281.191599 
L 120.728134 281.733139 
L 120.879635 280.814087 
L 121.031135 268.938327 
L 121.637135 278.525808 
L 121.788635 286.589513 
L 122.091635 280.74067 
L 122.546135 280.167002 
L 122.697635 279.684468 
L 122.849135 281.211069 
L 123.000635 281.42744 
L 123.152136 279.226472 
L 123.758136 281.94796 
L 124.061136 276.271897 
L 124.667136 279.060968 
L 124.818636 281.776769 
L 124.970136 281.75994 
L 125.121636 281.624611 
L 125.273137 280.721338 
L 125.727637 282.720159 
L 125.879137 281.392039 
L 126.030637 281.687716 
L 126.182137 280.149023 
L 126.333637 275.536853 
L 126.939637 279.246075 
L 127.242637 276.707082 
L 127.394137 277.31389 
L 127.848638 281.406875 
L 128.000138 279.368535 
L 128.303138 283.984252 
L 128.909138 281.714454 
L 129.060638 282.496072 
L 129.212138 281.746769 
L 129.363638 278.796899 
L 129.515138 283.64098 
L 129.969639 279.906172 
L 130.272639 279.437924 
L 130.424139 276.042331 
L 130.575639 279.718781 
L 131.030139 277.48593 
L 131.333139 270.038234 
L 131.484639 275.143618 
L 131.636139 272.379465 
L 132.09064 268.775813 
L 132.24214 274.609332 
L 132.39364 273.38835 
L 132.54514 270.619841 
L 132.69664 274.202568 
L 133.15114 277.663737 
L 133.45414 277.269129 
L 133.60564 274.515747 
L 133.75714 266.200092 
L 134.211641 271.891366 
L 134.363141 269.396104 
L 134.514641 274.683348 
L 134.817641 272.641572 
L 135.272141 273.946217 
L 135.575141 268.082088 
L 135.726641 259.739261 
L 135.878141 262.651735 
L 136.332641 260.291837 
L 136.484142 268.56753 
L 136.635642 266.882025 
L 136.938642 272.309766 
L 137.393142 277.329413 
L 137.847642 270.94208 
L 137.999142 271.82188 
L 138.453642 245.943327 
L 138.605142 272.310881 
L 138.756643 259.879438 
L 138.908143 271.202368 
L 139.059643 267.132532 
L 139.665643 273.26595 
L 139.817143 271.688999 
L 139.968643 276.850318 
L 140.120143 275.922097 
L 140.574643 278.250469 
L 141.029144 271.590987 
L 141.180644 276.7612 
L 141.635144 276.468274 
L 141.786644 278.890888 
L 141.938144 278.006369 
L 142.695644 274.863023 
L 142.847144 277.12418 
L 142.998644 273.198812 
L 143.150145 262.189181 
L 143.301645 273.749407 
L 143.756145 276.651981 
L 143.907645 268.018312 
L 144.059145 276.867285 
L 144.210645 276.89918 
L 144.362145 279.662224 
L 144.816645 276.725537 
L 144.968145 277.574432 
L 145.119645 274.687567 
L 145.877146 278.138686 
L 146.180146 274.52246 
L 146.331646 264.260495 
L 146.483146 269.309839 
L 146.937646 275.423578 
L 147.392146 266.302882 
L 147.543646 265.941124 
L 148.149647 273.696081 
L 148.301147 269.855039 
L 148.604147 276.24268 
L 149.058647 276.11802 
L 149.210147 275.100179 
L 149.361647 270.522082 
L 149.513147 274.445549 
L 149.664647 273.969156 
L 150.119148 267.854073 
L 150.270648 272.361684 
L 150.422148 267.211511 
L 150.725148 276.410005 
L 151.179648 277.160919 
L 151.331148 278.631231 
L 151.482648 274.3805 
L 151.785648 261.980955 
L 152.240149 272.726411 
L 152.391649 269.620631 
L 152.694649 275.702215 
L 152.846149 273.919355 
L 153.300649 275.230923 
L 153.452149 261.278574 
L 153.755149 270.983999 
L 153.906649 273.142229 
L 154.36115 276.585257 
L 154.81565 266.927828 
L 154.96715 273.501244 
L 155.42165 270.477015 
L 155.57315 276.447354 
L 155.72465 277.220393 
L 155.87615 276.818231 
L 156.02765 261.758802 
L 156.633651 276.429038 
L 156.785151 278.563834 
L 156.936651 269.205542 
L 157.088151 277.147094 
L 157.542651 274.135545 
L 157.694151 276.764857 
L 157.997151 277.677962 
L 158.148651 276.825668 
L 158.603151 272.92114 
L 158.754652 268.974853 
L 158.906152 273.526991 
L 159.057652 269.034425 
L 159.209152 272.379553 
L 159.663652 273.842607 
L 159.815152 269.006448 
L 159.966652 276.049478 
L 160.118152 274.949071 
L 160.724152 266.657113 
L 160.875652 270.775294 
L 161.027153 271.754851 
L 161.178653 263.986808 
L 161.330153 274.691634 
L 161.784653 270.994762 
L 162.087653 275.490022 
L 162.239153 272.218271 
L 162.390653 274.432027 
L 162.845153 278.236677 
L 162.996653 275.387544 
L 163.148153 275.824464 
L 163.299654 272.027036 
L 163.451154 256.226587 
L 164.208654 275.261541 
L 164.360154 275.201827 
L 164.511654 270.523373 
L 164.966154 276.602332 
L 165.117654 276.121377 
L 165.269154 278.764186 
L 165.420654 273.52063 
L 165.572155 278.19117 
L 166.026655 279.28766 
L 166.178155 275.745671 
L 166.329655 251.539859 
L 166.481155 276.497845 
L 166.632655 279.433801 
L 167.238655 271.80469 
L 167.390155 258.919693 
L 167.541655 274.763 
L 167.693156 272.280932 
L 168.147656 272.529263 
L 168.450656 274.292323 
L 168.602156 277.309799 
L 168.753656 265.896256 
L 169.359656 279.358085 
L 169.511156 278.301644 
L 169.662656 271.784228 
L 169.814156 272.710311 
L 170.420157 277.72078 
L 170.571657 269.413165 
L 170.723157 249.665103 
L 170.874657 274.746615 
L 171.329157 277.629581 
L 171.480657 270.03696 
L 171.935157 278.23218 
L 172.389658 281.751336 
L 172.844158 272.984779 
L 172.995658 278.375014 
L 173.450158 268.386916 
L 173.601658 271.509587 
L 173.753158 277.801322 
L 173.904658 272.587861 
L 174.056158 277.173756 
L 174.510659 275.784206 
L 174.662159 273.721895 
L 174.813659 265.117301 
L 175.116659 277.23088 
L 175.419659 286.918125 
L 175.874159 276.343977 
L 176.025659 277.709534 
L 176.177159 276.051673 
L 176.63166 275.87112 
L 176.78316 274.794533 
L 177.08616 254.017945 
L 177.23766 256.373863 
L 177.84366 254.621341 
L 178.14666 271.113869 
L 178.29816 275.531179 
L 178.75266 266.443334 
L 178.904161 268.982474 
L 179.055661 276.435247 
L 179.207161 268.890351 
L 179.358661 275.257116 
L 179.813161 271.088063 
L 179.964661 275.189227 
L 180.116161 273.956721 
L 180.267661 278.199649 
L 180.419161 274.736116 
L 180.873661 280.966113 
L 181.025161 279.468565 
L 181.176662 272.056751 
L 181.328162 279.366837 
L 181.479662 276.136901 
L 181.934162 279.703327 
L 182.237162 279.264777 
L 182.388662 274.982617 
L 182.540162 275.131238 
L 182.994662 282.343378 
L 183.146162 279.659424 
L 183.297663 280.947362 
L 183.600663 279.698296 
L 184.055163 280.946454 
L 184.358163 279.069906 
L 184.509663 274.897657 
L 184.661163 279.578815 
L 185.115663 276.331019 
L 185.418663 280.19967 
L 185.570164 277.231213 
L 185.721664 277.708805 
L 186.176164 281.465307 
L 186.327664 278.666652 
L 186.479164 271.741347 
L 186.782164 279.35051 
L 187.236664 278.77552 
L 187.388164 278.06985 
L 187.539664 279.16678 
L 187.842665 270.561757 
L 188.297165 272.662201 
L 188.448665 275.155662 
L 188.600165 267.185976 
L 188.903165 262.947688 
L 189.357665 276.858881 
L 189.509165 277.478665 
L 189.660665 264.781223 
L 189.812165 269.459049 
L 189.963665 269.984276 
L 190.418166 272.316843 
L 190.569666 270.676341 
L 190.721166 274.479156 
L 191.024166 269.356899 
L 191.478666 270.751443 
L 191.630166 277.076478 
L 191.933166 275.193074 
L 192.084666 256.51353 
L 192.539167 277.666415 
L 192.690667 276.307908 
L 192.842167 273.451424 
L 192.993667 272.943131 
L 193.599667 278.584827 
L 193.751167 275.973225 
L 193.902667 276.153635 
L 194.054167 275.264412 
L 194.205667 279.767858 
L 194.660168 279.296912 
L 194.811668 280.636694 
L 194.963168 278.162498 
L 195.114668 278.700762 
L 195.266168 279.710107 
L 195.872168 272.411129 
L 196.023668 276.201934 
L 196.175168 276.415653 
L 196.326668 273.443836 
L 196.781169 280.22095 
L 197.084169 274.830781 
L 197.235669 278.603002 
L 197.387169 268.193021 
L 197.841669 272.586069 
L 197.993169 272.967021 
L 198.144669 269.098295 
L 198.447669 271.682474 
L 198.902169 278.493017 
L 199.35667 273.220672 
L 199.50817 272.801108 
L 199.96267 279.071031 
L 200.11417 273.908477 
L 200.41717 276.811851 
L 201.02317 280.438339 
L 201.174671 274.596816 
L 201.326171 275.198934 
L 201.477671 272.179284 
L 201.629171 275.877058 
L 202.235171 274.007756 
L 202.538171 261.442071 
L 202.689671 261.245712 
L 203.447172 267.239344 
L 203.750172 247.11921 
L 204.356172 275.26689 
L 204.507672 276.483876 
L 204.659172 275.617907 
L 204.810672 272.783003 
L 205.265172 276.289755 
L 205.416672 266.578865 
L 205.568172 272.804568 
L 205.719673 270.031312 
L 205.871173 263.320614 
L 206.325673 272.236398 
L 206.477173 269.903763 
L 206.628673 273.494797 
L 206.780173 266.913955 
L 206.931673 275.614676 
L 207.386173 278.657123 
L 207.537673 277.581941 
L 207.689173 258.79935 
L 207.840674 275.189183 
L 207.992174 277.499067 
L 208.446674 279.92564 
L 208.749674 279.238953 
L 208.901174 277.885673 
L 209.052674 278.924056 
L 209.507174 279.251626 
L 209.658674 280.642116 
L 209.810174 275.257282 
L 209.961674 276.602661 
L 210.113175 271.852426 
L 210.567675 278.58744 
L 210.719175 276.756091 
L 210.870675 278.289374 
L 211.022175 275.587961 
L 211.173675 276.249933 
L 211.779675 271.984819 
L 211.931175 272.924092 
L 212.082675 264.627489 
L 212.234175 276.933774 
L 212.688676 280.114343 
L 212.840176 279.426167 
L 213.143176 267.337452 
L 213.294676 273.987871 
L 213.749176 282.446441 
L 213.900676 275.600761 
L 214.052176 277.10379 
L 214.203676 274.627678 
L 214.355176 276.879277 
L 214.809677 277.730929 
L 214.961177 276.227964 
L 215.112677 276.593099 
L 215.264177 273.572049 
L 215.415677 277.805363 
L 216.021677 275.991428 
L 216.324677 263.756151 
L 216.476177 272.194464 
L 216.930678 267.336612 
L 217.082178 276.75332 
L 217.233678 274.40609 
L 217.385178 274.106782 
L 217.536678 277.408669 
L 217.991178 279.922431 
L 218.294178 275.709507 
L 218.445678 274.185712 
L 218.597178 262.853679 
L 219.051679 276.026184 
L 219.354679 273.031638 
L 219.657679 278.658023 
L 220.112179 277.070021 
L 220.263679 277.013828 
L 220.415179 277.194052 
L 220.566679 276.668056 
L 221.172679 279.92989 
L 221.32418 278.516517 
L 221.47568 280.698208 
L 221.62718 275.457619 
L 221.77868 277.5493 
L 222.38468 280.644192 
L 222.68768 277.098478 
L 222.83918 280.752912 
L 223.748181 275.800659 
L 223.899681 269.846234 
L 224.505681 278.646486 
L 224.657181 274.241016 
L 224.808681 276.680908 
L 224.960181 273.608943 
L 225.414681 273.386714 
L 225.566181 277.656381 
L 225.717682 275.367646 
L 225.869182 266.272604 
L 226.020682 276.77403 
L 226.626682 277.562038 
L 226.778182 278.38424 
L 226.929682 277.514012 
L 227.081182 274.753527 
L 227.687182 278.219927 
L 227.838682 276.161356 
L 227.990183 276.520137 
L 228.141683 273.930084 
L 228.596183 269.240806 
L 228.899183 262.25169 
L 229.050683 267.423902 
L 229.656683 272.596113 
L 229.808183 270.293243 
L 229.959683 150.132849 
L 230.262684 249.905262 
L 230.717184 258.185103 
L 230.868684 262.990674 
L 231.020184 254.316254 
L 231.171684 265.483308 
L 231.323184 254.484857 
L 231.777684 270.055394 
L 231.929184 265.411902 
L 232.080684 267.36857 
L 232.232184 271.009969 
L 232.383684 256.846877 
L 232.989685 270.666675 
L 233.141185 267.353775 
L 233.292685 270.631238 
L 233.444185 263.957838 
L 233.898685 274.630893 
L 234.050185 273.767974 
L 234.201685 271.87032 
L 234.504685 277.031953 
L 234.959186 276.389195 
L 235.110686 274.722179 
L 235.262186 276.244096 
L 235.413686 265.472208 
L 235.565186 274.213604 
L 236.019686 276.136815 
L 236.171186 274.512237 
L 236.474186 278.629022 
L 236.625686 276.38512 
L 237.080187 279.115311 
L 237.231687 275.184243 
L 237.383187 274.442863 
L 237.534687 275.72015 
L 237.686187 269.357618 
L 238.140687 265.877036 
L 238.292187 275.517055 
L 238.443687 269.105258 
L 238.595187 275.959351 
L 238.746687 274.943287 
L 239.352688 278.631747 
L 239.504188 276.551371 
L 239.655688 270.353441 
L 239.807188 277.763586 
L 240.261688 279.057211 
L 240.413188 276.720674 
L 240.564688 278.70917 
L 240.867688 268.382843 
L 241.322189 267.751661 
L 241.625189 275.256314 
L 241.776689 268.532683 
L 241.928189 270.449357 
L 242.382689 257.305129 
L 242.534189 260.908742 
L 242.685689 260.54914 
L 242.837189 252.156251 
L 242.988689 266.642452 
L 243.443189 269.959133 
L 243.59469 260.995201 
L 243.74619 260.187279 
L 243.89769 257.11468 
L 244.50369 269.922017 
L 244.80669 270.664125 
L 245.10969 264.520284 
L 245.56419 268.527152 
L 245.71569 263.519486 
L 246.170191 276.08207 
L 246.927691 256.477138 
L 247.079191 241.254317 
L 247.230691 243.409149 
L 247.685191 244.165314 
L 247.836691 246.628641 
L 247.988191 263.730866 
L 248.139692 261.300603 
L 248.291192 267.697528 
L 248.745692 270.438463 
L 248.897192 241.524027 
L 249.048692 238.022122 
L 249.200192 253.690414 
L 249.806192 265.949291 
L 249.957692 266.526429 
L 250.109192 258.055148 
L 250.260693 260.960093 
L 250.412193 261.310349 
L 250.866693 261.660605 
L 251.018193 250.222803 
L 251.169693 254.576276 
L 251.321193 267.290345 
L 251.472693 257.705805 
L 252.078693 267.676678 
L 252.230193 267.398066 
L 252.381693 267.119453 
L 252.533194 259.166137 
L 252.987694 257.068598 
L 253.139194 259.494007 
L 253.290694 258.650151 
L 254.048194 261.754312 
L 254.351194 267.962634 
L 254.502694 266.743635 
L 254.654194 262.346608 
L 255.108695 261.474717 
L 255.260195 260.602826 
L 255.411695 271.057547 
L 255.563195 270.297297 
L 255.714695 270.537075 
L 256.169195 273.97305 
L 256.320695 273.861914 
L 256.623695 272.933535 
L 256.775195 270.652153 
L 257.229696 274.982589 
L 257.381196 274.23782 
L 257.532696 275.135721 
L 257.835696 250.807265 
L 258.290196 268.227999 
L 258.593196 269.302928 
L 258.744696 272.138039 
L 258.896196 272.630162 
L 259.350697 273.37362 
L 259.502197 256.224696 
L 259.653697 272.775983 
L 259.805197 253.698081 
L 259.956697 270.745226 
L 260.411197 272.644522 
L 260.714197 250.853288 
L 260.865697 267.848884 
L 261.017197 270.006953 
L 261.471698 268.967653 
L 261.623198 259.369845 
L 261.774698 260.794539 
L 261.926198 270.579758 
L 262.077698 272.372142 
L 262.532198 266.241985 
L 262.683698 271.206303 
L 262.835198 269.134139 
L 262.986698 236.82188 
L 263.138198 266.974536 
L 263.592698 266.130097 
L 263.744199 270.917465 
L 263.895699 265.063665 
L 264.198699 269.669709 
L 264.653199 265.070833 
L 264.956199 269.478379 
L 265.107699 272.34289 
L 265.259199 264.513559 
L 265.713699 271.980614 
L 265.865199 270.200242 
L 266.0167 271.371676 
L 266.3197 267.725339 
L 266.7742 273.856748 
L 266.9257 272.628171 
L 267.0772 268.194519 
L 267.2287 249.210843 
L 267.3802 267.636817 
L 267.8347 260.099823 
L 268.137701 274.966357 
L 268.289201 273.585541 
L 268.440701 268.921278 
L 268.895201 271.904491 
L 269.046701 271.623102 
L 269.198201 273.537553 
L 269.349701 270.823723 
L 269.501201 271.785203 
L 269.955701 271.270064 
L 270.107201 253.140529 
L 270.258701 257.298068 
L 270.561702 274.753478 
L 271.016202 268.044302 
L 271.319202 272.072425 
L 271.470702 246.909253 
L 271.622202 253.490062 
L 272.076702 238.509137 
L 272.228202 258.432384 
L 272.531202 269.113189 
L 272.682703 261.724264 
L 273.137203 258.621907 
L 273.288703 248.084664 
L 273.440203 264.121336 
L 273.743203 242.224801 
L 274.349203 269.539358 
L 274.652203 258.446249 
L 274.803704 263.099769 
L 275.258204 259.62007 
L 275.409704 265.341693 
L 275.712704 266.804656 
L 275.864204 260.894902 
L 276.470204 265.08521 
L 276.924704 251.251008 
L 277.379205 267.835174 
L 277.530705 261.556639 
L 277.833705 268.9219 
L 277.985205 264.943083 
L 278.439705 259.57047 
L 278.591205 262.369951 
L 278.742705 260.208311 
L 279.045705 266.280048 
L 279.500206 269.730682 
L 279.651706 238.49056 
L 279.803206 248.863706 
L 280.106206 199.910031 
L 280.560706 244.337902 
L 280.712206 235.100953 
L 280.863706 253.605398 
L 281.015206 245.885212 
L 281.166706 229.030278 
L 282.227207 251.120669 
L 282.681707 252.181205 
L 282.833207 260.018733 
L 283.136207 247.083112 
L 283.287707 255.941321 
L 283.742208 264.663354 
L 283.893708 251.826266 
L 284.045208 258.825008 
L 284.348208 255.893126 
L 284.802708 260.495618 
L 284.954208 264.942155 
L 285.408708 252.94669 
L 285.863208 243.134177 
L 286.317709 253.353785 
L 286.469209 240.234956 
L 287.075209 262.165652 
L 287.226709 285.297453 
L 287.529709 264.92686 
L 287.984209 269.622777 
L 288.135709 265.433777 
L 288.28721 256.856415 
L 288.43871 260.59796 
L 288.59021 250.273468 
L 289.04471 260.5086 
L 289.19621 257.7063 
L 289.34771 262.613513 
L 289.49921 263.484293 
L 290.25671 259.901088 
L 290.40821 247.091556 
L 290.559711 212.060389 
L 290.711211 251.375415 
L 291.165711 255.097379 
L 291.468711 265.012055 
L 291.620211 265.874625 
L 291.771711 258.377313 
L 292.226211 262.999264 
L 292.377711 245.664619 
L 292.529211 253.50454 
L 292.680712 250.155692 
L 292.832212 261.136492 
L 293.286712 269.179151 
L 293.589712 253.514636 
L 293.892712 259.745333 
L 294.347212 267.674775 
L 294.650212 264.295733 
L 294.801712 260.902931 
L 294.953213 270.611033 
L 295.407713 274.816756 
L 295.559213 269.553552 
L 295.710713 259.820722 
L 295.862213 263.925535 
L 296.013713 257.74356 
L 296.619713 264.030766 
L 296.771213 256.068008 
L 297.074213 269.525585 
L 297.528714 253.959646 
L 297.680214 262.277788 
L 297.983214 254.04728 
L 298.134714 267.502874 
L 298.589214 267.532853 
L 298.740714 265.897879 
L 298.892214 267.847372 
L 299.195214 242.376 
L 299.649715 258.974179 
L 299.801215 256.948688 
L 300.104215 238.859482 
L 300.255715 249.768586 
L 300.710215 260.389723 
L 300.861715 257.677424 
L 301.164715 263.048785 
L 301.316215 265.370901 
L 301.770716 269.402895 
L 301.922216 269.383496 
L 302.073716 270.242469 
L 302.225216 227.76411 
L 302.376716 247.525486 
L 302.831216 260.006542 
L 302.982716 267.390915 
L 303.134216 267.237064 
L 303.285716 264.398434 
L 303.437216 252.571872 
L 303.891717 265.558029 
L 304.043217 255.863581 
L 304.346217 257.398103 
L 304.497717 257.747656 
L 305.103717 254.836984 
L 305.255217 259.306941 
L 305.406717 254.742867 
L 305.558217 265.651176 
L 306.012717 264.40485 
L 306.315718 254.907629 
L 306.467218 258.117176 
L 306.618718 240.487915 
L 307.073218 258.343209 
L 307.224718 252.435093 
L 307.376218 256.859518 
L 307.679218 252.834718 
L 308.133718 267.025908 
L 308.285219 267.156097 
L 308.436719 246.253329 
L 308.588219 241.151637 
L 308.739719 252.856806 
L 309.194219 252.088558 
L 309.345719 256.607236 
L 309.497219 257.158388 
L 309.648719 256.098281 
L 309.800219 263.450426 
L 310.254719 264.572013 
L 310.406219 261.620699 
L 310.55772 261.654957 
L 310.70922 270.867714 
L 310.86072 271.41544 
L 311.31522 273.717785 
L 311.46672 269.320298 
L 311.76972 265.461522 
L 312.37572 266.903137 
L 312.52722 264.789279 
L 312.67872 267.428205 
L 312.830221 255.87439 
L 312.981721 262.796245 
L 313.587721 229.765046 
L 314.042221 259.048181 
L 314.496721 257.940901 
L 314.648221 259.177012 
L 314.799721 259.364529 
L 315.102722 252.238203 
L 315.708722 246.891993 
L 316.011722 257.745364 
L 316.163222 246.808297 
L 316.617722 236.465883 
L 316.769222 253.384212 
L 316.920722 252.090983 
L 317.072222 208.508563 
L 317.223723 242.661955 
L 317.678223 249.709393 
L 317.829723 240.263809 
L 317.981223 255.204405 
L 318.132723 255.60243 
L 318.284223 251.053041 
L 318.738723 262.488872 
L 318.890223 260.49542 
L 319.193223 242.601396 
L 319.344723 253.571153 
L 319.799224 254.646453 
L 319.950724 257.959468 
L 320.102224 265.137349 
L 320.253724 233.106095 
L 320.405224 247.091893 
L 320.859724 258.549167 
L 321.011224 249.2723 
L 321.162724 247.490674 
L 321.314224 240.986627 
L 321.465724 249.761007 
L 322.071725 264.904551 
L 322.223225 260.568214 
L 322.374725 251.011853 
L 322.526225 252.222979 
L 322.980725 266.839903 
L 323.132225 250.56381 
L 323.283725 252.136074 
L 323.435225 249.091298 
L 323.586725 226.253262 
L 324.041226 225.250694 
L 324.344226 258.571765 
L 324.647226 263.11034 
L 325.101726 252.317648 
L 325.253226 228.670143 
L 325.404726 228.965285 
L 325.556226 231.467459 
L 325.707726 241.91417 
L 326.162227 231.74165 
L 326.313727 234.46177 
L 326.465227 248.914628 
L 326.768227 226.369445 
L 327.222727 239.309558 
L 327.374227 239.669297 
L 327.525727 232.360062 
L 327.677227 242.747449 
L 327.828727 236.655552 
L 328.283227 234.322053 
L 328.434728 241.330917 
L 328.586228 231.24585 
L 328.737728 239.29525 
L 328.889228 233.924606 
L 329.495228 234.088981 
L 329.646728 241.42595 
L 329.949728 244.075438 
L 330.404228 249.281137 
L 330.707229 230.366606 
L 330.858729 213.197654 
L 331.010229 209.889629 
L 331.464729 204.446149 
L 331.616229 225.841486 
L 331.767729 226.282356 
L 331.919229 227.36088 
L 332.070729 219.338219 
L 332.676729 224.938279 
L 332.82823 238.337895 
L 332.97973 235.499269 
L 333.13123 247.636551 
L 333.58573 242.121402 
L 333.88873 212.818829 
L 334.04023 227.2991 
L 334.19173 217.49241 
L 334.64623 250.533431 
L 334.94923 238.619876 
L 335.100731 215.562806 
L 335.252231 151.860642 
L 335.706731 199.120382 
L 335.858231 231.987811 
L 336.009731 231.340666 
L 336.161231 201.017227 
L 336.312731 213.355136 
L 336.767231 194.581963 
L 336.918731 96.468038 
L 337.373232 169.940083 
L 337.827732 198.775207 
L 338.130732 195.457836 
L 338.282232 226.760839 
L 338.433732 198.030104 
L 339.039732 231.645779 
L 339.191232 223.652447 
L 339.342732 188.505365 
L 339.494232 190.554666 
L 340.100233 194.263685 
L 340.403233 217.252732 
L 340.554733 186.183436 
L 340.857733 270.582303 
L 341.160733 196.633901 
L 341.312233 215.826938 
L 341.463733 96.610256 
L 341.615233 183.835153 
L 342.069734 189.286133 
L 342.524234 229.400375 
L 342.675734 188.150215 
L 343.130234 220.03314 
L 343.433234 211.671398 
L 343.584734 226.412358 
L 343.736234 224.692787 
L 344.190735 234.748278 
L 344.342235 218.874444 
L 344.493735 220.644063 
L 344.796735 246.701334 
L 345.251235 237.078971 
L 345.402735 149.903827 
L 345.554235 220.874854 
L 345.705735 207.826361 
L 345.857235 180.434923 
L 346.463236 218.621427 
L 346.614736 204.837608 
L 346.766236 224.801412 
L 346.917736 209.914193 
L 347.372236 208.444194 
L 347.523736 206.681138 
L 347.675236 156.58467 
L 347.978236 225.247733 
L 348.735737 246.528197 
L 349.038737 201.856973 
L 349.644737 234.89372 
L 349.947737 233.445586 
L 350.099237 234.635281 
L 350.705238 247.729868 
L 350.856738 258.516054 
L 351.008238 247.382479 
L 351.159738 253.196651 
L 351.614238 246.94962 
L 351.765738 240.786791 
L 352.068738 238.587232 
L 352.220238 216.488437 
L 352.674738 241.259765 
L 352.977739 200.164884 
L 353.129239 247.357058 
L 353.280739 238.561488 
L 353.735239 242.749281 
L 354.038239 255.944572 
L 354.341239 219.734812 
L 354.795739 238.270936 
L 354.947239 249.637669 
L 355.098739 244.921012 
L 355.25024 235.212367 
L 355.40174 234.472691 
L 355.55324 247.101698 
L 355.85624 233.878463 
L 356.00774 233.959541 
L 356.15924 219.253013 
L 356.46224 247.249423 
L 356.91674 249.622882 
L 357.06824 256.218525 
L 357.21974 251.843202 
L 357.522741 233.190916 
L 357.977241 247.64537 
L 358.128741 223.897595 
L 358.280241 244.915563 
L 358.431741 244.229802 
L 359.037741 247.273005 
L 359.189241 253.466714 
L 359.643742 225.83508 
L 360.098242 228.844379 
L 360.249742 228.996217 
L 360.401242 219.537315 
L 360.704242 34.918125 
L 361.461742 171.463142 
L 361.764742 161.751383 
L 362.219243 210.47666 
L 362.370743 201.460962 
L 362.522243 146.897974 
L 362.673743 211.33076 
L 362.825243 207.266558 
L 363.279743 238.641879 
L 363.431243 225.055501 
L 363.582743 224.594327 
L 363.885743 201.181589 
L 364.340244 235.514108 
L 364.491744 238.29174 
L 364.643244 243.938949 
L 364.946244 233.002766 
L 365.552244 217.990012 
L 365.703744 206.187554 
L 365.855244 225.33284 
L 366.461245 241.782162 
L 366.764245 225.35242 
L 366.915745 231.750475 
L 367.067245 211.586707 
L 367.521745 217.469785 
L 367.673245 237.949628 
L 367.824745 231.899639 
L 368.127745 238.949662 
L 368.582246 239.89847 
L 369.036746 212.156769 
L 369.642746 235.22115 
L 369.945746 224.432505 
L 370.097246 239.853776 
L 370.248746 234.92924 
L 370.703246 232.998538 
L 370.854747 224.455826 
L 371.006247 204.185699 
L 371.309247 249.478322 
L 371.763747 218.095891 
L 371.915247 221.214829 
L 372.066747 235.637903 
L 372.218247 232.187426 
L 372.369747 210.010277 
L 372.975747 233.935665 
L 373.127248 201.410253 
L 373.430248 194.342753 
L 373.884748 198.167832 
L 374.036248 215.904196 
L 374.187748 188.663445 
L 374.339248 193.352414 
L 374.490748 185.338049 
L 374.945248 167.452542 
L 375.248249 194.139096 
L 375.399749 167.621438 
L 375.551249 191.521176 
L 376.005749 213.207633 
L 376.157249 199.075622 
L 376.460249 229.720773 
L 376.611749 203.775076 
L 377.066249 180.948507 
L 377.217749 203.037389 
L 377.369249 177.721214 
L 377.52075 193.623907 
L 377.67225 227.659259 
L 378.12675 235.350431 
L 378.27825 241.063534 
L 378.42975 225.984192 
L 378.58125 223.877 
L 378.73275 246.958798 
L 379.18725 241.343806 
L 379.49025 179.570848 
L 379.64175 230.828607 
L 379.793251 214.485973 
L 380.247751 240.894125 
L 380.550751 230.317471 
L 380.702251 232.027603 
L 380.853751 240.697307 
L 381.308251 231.851517 
L 381.459751 237.185637 
L 381.611251 221.658433 
L 381.762751 238.651341 
L 381.914251 217.853303 
L 382.368752 233.268062 
L 382.671752 223.65676 
L 382.823252 239.946227 
L 382.974752 224.144105 
L 383.429252 218.699482 
L 383.580752 240.358221 
L 383.883752 225.880524 
L 384.035252 227.170493 
L 384.489753 246.051102 
L 384.792753 206.344687 
L 384.944253 241.638774 
L 385.095753 236.832029 
L 385.550253 245.79837 
L 385.853253 232.117802 
L 386.004753 237.478345 
L 386.156253 232.266936 
L 386.610754 232.397856 
L 386.762254 220.12809 
L 386.913754 233.747793 
L 387.065254 218.716058 
L 387.216754 157.022126 
L 387.671254 173.131031 
L 387.974254 240.925764 
L 388.125754 253.643742 
L 388.277254 233.243216 
L 388.883255 250.955398 
L 389.034755 239.054162 
L 389.186255 243.343149 
L 389.337755 253.648401 
L 389.792255 245.469016 
L 389.943755 248.147229 
L 390.095255 248.626348 
L 390.246755 253.386681 
L 390.398255 236.549452 
L 390.852755 242.539252 
L 391.004256 235.771339 
L 391.307256 243.68749 
L 391.458756 243.00448 
L 391.913256 249.537758 
L 392.064756 249.089968 
L 392.216256 249.565469 
L 392.367756 232.001088 
L 392.973756 235.769023 
L 393.125257 248.284007 
L 393.276757 250.204338 
L 393.579757 231.637296 
L 394.034257 242.996715 
L 394.185757 257.520869 
L 394.488757 244.672165 
L 394.640257 251.280858 
L 395.094757 225.628974 
L 395.246257 247.287264 
L 395.397758 234.113598 
L 395.700758 256.548433 
L 396.155258 246.268299 
L 396.306758 240.036591 
L 396.458258 244.285103 
L 396.609758 233.32276 
L 396.761258 244.430282 
L 397.215758 217.699306 
L 397.367258 222.487515 
L 397.518758 222.219865 
L 397.821759 230.552725 
L 398.276259 229.351094 
L 398.427759 192.069617 
L 398.579259 207.955162 
L 398.730759 238.428386 
L 398.882259 234.883856 
L 399.033759 281.30448 
L 399.488259 237.079309 
L 399.639759 209.553088 
L 399.94276 236.642514 
L 400.39726 224.420749 
L 400.54876 232.109252 
L 400.70026 200.105148 
L 400.85176 228.6652 
L 401.00326 208.458273 
L 401.60926 235.738011 
L 402.063761 212.90015 
L 402.518261 218.58052 
L 402.669761 193.515979 
L 402.821261 200.680926 
L 402.972761 234.09498 
L 403.124261 222.108433 
L 403.578761 244.881198 
L 403.730261 243.211164 
L 403.881761 226.851908 
L 404.033261 246.234633 
L 404.184761 243.408798 
L 404.639262 225.178449 
L 404.790762 213.303644 
L 405.093762 239.874402 
L 405.699762 237.095546 
L 405.851262 225.457487 
L 406.002762 245.080797 
L 406.154262 229.51314 
L 406.305762 229.724047 
L 406.760263 214.699631 
L 406.911763 219.344323 
L 407.063263 200.094365 
L 407.214763 206.989891 
L 407.366263 236.631724 
L 407.820763 245.993978 
L 408.123763 186.249704 
L 408.275263 220.680721 
L 408.426763 216.999418 
L 408.881264 224.224691 
L 409.032764 231.020597 
L 409.184264 213.471965 
L 409.335764 218.915805 
L 409.487264 216.087586 
L 409.941764 231.038224 
L 410.244764 227.762151 
L 410.396264 188.707017 
L 410.547764 208.969003 
L 411.002265 171.25181 
L 411.305265 190.549175 
L 411.608265 138.122571 
L 412.062765 215.851098 
L 412.214265 176.443404 
L 412.365765 214.889068 
L 412.517265 224.049652 
L 412.668765 223.615349 
L 413.123265 224.367283 
L 413.274766 207.808518 
L 413.426266 150.906272 
L 413.577766 149.315319 
L 413.729266 117.513422 
L 414.486766 244.260466 
L 414.789766 194.135438 
L 415.244266 236.409276 
L 415.395766 237.684016 
L 415.547267 203.194677 
L 415.698767 204.548731 
L 415.850267 210.94339 
L 416.607767 254.332743 
L 417.365267 231.309718 
L 417.668268 240.79121 
L 417.971268 214.468316 
L 418.425768 240.060932 
L 418.577268 229.338028 
L 418.728768 232.525371 
L 418.880268 209.78496 
L 419.031768 241.223711 
L 419.637768 227.879792 
L 419.940769 243.874346 
L 420.546769 238.843909 
L 420.698269 245.781201 
L 420.849769 239.607976 
L 421.001269 249.232908 
L 421.152769 233.002598 
L 421.607269 207.416723 
L 421.758769 224.604074 
L 422.061769 230.208266 
L 422.21327 242.714974 
L 422.66777 228.305797 
L 422.81927 239.556439 
L 423.27377 234.416649 
L 423.72827 237.930963 
L 423.87977 240.132145 
L 424.18277 226.757249 
L 424.33427 230.759744 
L 424.788771 237.673969 
L 424.940271 179.666754 
L 425.091771 232.835649 
L 425.243271 245.046571 
L 425.394771 246.123856 
L 426.000771 221.959367 
L 426.152271 202.606566 
L 426.455271 232.683998 
L 426.909772 218.464962 
L 427.212772 238.201239 
L 427.364272 207.851468 
L 427.515772 201.908632 
L 427.970272 188.447262 
L 428.121772 231.886872 
L 428.273272 236.415179 
L 428.424772 170.996904 
L 428.576272 199.257851 
L 429.182273 236.011212 
L 429.333773 192.786103 
L 429.636773 242.659668 
L 430.091273 247.437193 
L 430.242773 253.642179 
L 430.394273 237.307838 
L 430.545773 235.890227 
L 430.697273 257.311035 
L 431.151774 238.001066 
L 431.303274 260.880134 
L 431.454774 262.837531 
L 431.606274 256.160886 
L 431.757774 243.946201 
L 432.212274 246.284082 
L 432.363774 245.635183 
L 432.515274 237.386435 
L 432.666774 254.360471 
L 433.272775 236.612432 
L 433.727275 261.856418 
L 433.878775 261.595424 
L 434.333275 261.80111 
L 434.484775 259.359636 
L 434.636275 263.880056 
L 434.787775 261.019495 
L 434.939275 264.886177 
L 435.393775 258.771728 
L 435.696776 271.699027 
L 435.999776 268.17662 
L 436.454276 267.2071 
L 436.605776 262.550433 
L 436.908776 261.850885 
L 437.060276 255.997015 
L 437.666276 260.395169 
L 437.817777 260.120289 
L 437.969277 256.685282 
L 438.120777 260.212005 
L 438.726777 247.157611 
L 438.878277 229.672251 
L 439.181277 251.115063 
L 439.635777 261.392474 
L 439.787277 255.846693 
L 439.938777 256.005846 
L 440.090278 268.591509 
L 440.241778 268.023433 
L 440.696278 274.253232 
L 440.999278 265.658465 
L 441.302278 259.076937 
L 441.908278 260.304177 
L 442.211279 266.312728 
L 442.362779 268.828825 
L 442.817279 264.060809 
L 442.968779 254.370722 
L 443.120279 259.025369 
L 443.271779 269.14903 
L 443.423279 263.218996 
L 443.877779 274.041609 
L 444.180779 259.943365 
L 444.332279 274.845041 
L 444.93828 275.076704 
L 445.08978 270.690648 
L 445.24128 259.617833 
L 445.39278 219.984806 
L 445.54428 234.209127 
L 445.99878 263.789627 
L 446.15028 263.48061 
L 446.30178 271.170747 
L 446.45328 265.875371 
L 446.60478 265.991506 
L 447.059281 270.106892 
L 447.362281 246.257461 
L 447.513781 250.369591 
L 447.665281 257.78268 
L 448.119781 264.695387 
L 448.271281 263.619493 
L 448.422781 255.357593 
L 448.574281 266.315213 
L 448.725781 261.182093 
L 449.180282 266.36733 
L 449.331782 255.831809 
L 449.483282 255.091736 
L 449.634782 248.015893 
L 450.240782 194.617985 
L 450.392282 243.940584 
L 450.543782 250.075728 
L 450.695282 244.520541 
L 450.846782 228.47882 
L 451.301283 211.297185 
L 451.452783 217.717269 
L 451.604283 236.186202 
L 451.755783 205.496314 
L 451.907283 233.201627 
L 452.361783 255.516955 
L 452.513283 245.53323 
L 452.664783 245.13389 
L 452.816283 282.096566 
L 453.422284 253.960353 
L 453.573784 255.469443 
L 453.876784 264.758633 
L 454.482784 270.206493 
L 454.785784 265.855344 
L 454.937284 249.783354 
L 455.543284 254.504522 
L 455.997785 265.613944 
L 456.149285 254.202187 
L 456.603785 258.104023 
L 456.755285 251.630081 
L 457.058285 267.072631 
L 457.209785 265.912377 
L 457.664285 266.376897 
L 457.967286 261.700114 
L 458.118786 268.454268 
L 458.270286 260.749696 
L 458.724786 262.944506 
L 459.027786 271.264111 
L 459.179286 270.149887 
L 459.330786 263.783104 
L 459.785286 256.019029 
L 460.088287 267.580726 
L 460.239787 269.905842 
L 460.391287 266.954832 
L 460.845787 234.197714 
L 461.148787 268.56059 
L 461.300287 235.350606 
L 461.451787 254.370686 
L 461.906287 252.965432 
L 462.057787 257.567912 
L 462.209287 249.998088 
L 462.512288 258.731728 
L 462.966788 254.992565 
L 463.118288 262.578178 
L 463.269788 263.141338 
L 463.421288 262.631388 
L 463.572788 264.33833 
L 464.027288 265.686777 
L 464.178788 261.085381 
L 464.330288 261.639556 
L 464.481788 264.18197 
L 464.633289 262.858056 
L 465.239289 245.124825 
L 465.542289 232.390863 
L 465.693789 240.802205 
L 466.148289 253.163506 
L 466.451289 247.531467 
L 466.75429 262.003166 
L 467.20879 249.266634 
L 467.36029 256.008239 
L 467.51179 268.183375 
L 467.81479 263.317572 
L 468.26929 253.803285 
L 468.72379 266.329928 
L 468.87529 270.025779 
L 469.481291 262.601 
L 469.632791 266.164382 
L 469.784291 219.228546 
L 470.390291 249.851782 
L 470.693291 254.214233 
L 470.844791 260.477806 
L 471.602292 243.621202 
L 471.753792 246.59085 
L 471.905292 244.087025 
L 472.056792 260.962904 
L 472.511292 257.121987 
L 472.662792 252.128453 
L 472.814292 260.273399 
L 472.965792 258.955317 
L 473.571793 267.569348 
L 473.723293 255.571955 
L 473.874793 256.378016 
L 474.026293 255.202336 
L 474.177793 262.988776 
L 474.632293 256.52067 
L 474.783793 259.733993 
L 474.935293 235.733012 
L 475.086793 257.956131 
L 475.238293 248.654264 
L 475.692794 238.394403 
L 475.844294 252.715675 
L 475.995794 256.224719 
L 476.147294 248.7627 
L 476.298794 255.676989 
L 476.753294 267.013264 
L 476.904794 260.720282 
L 477.056294 265.209837 
L 477.813794 258.795958 
L 477.965295 253.398382 
L 478.268295 266.917748 
L 478.419795 265.715587 
L 478.874295 258.771427 
L 479.025795 265.188963 
L 479.177295 266.666177 
L 479.328795 266.17741 
L 479.480295 260.444634 
L 479.934795 260.857133 
L 480.237796 253.684645 
L 480.389296 261.320519 
L 480.540796 256.166653 
L 480.995296 259.284202 
L 481.146796 266.065135 
L 481.298296 259.350157 
L 481.449796 226.605363 
L 481.601296 244.28727 
L 482.358796 264.64003 
L 482.510297 264.062191 
L 482.661797 267.453652 
L 483.267797 261.908588 
L 483.419297 263.540091 
L 483.570797 257.416951 
L 483.722297 266.938349 
L 484.176797 267.839045 
L 484.328297 264.239464 
L 484.479797 272.07457 
L 484.631298 265.62184 
L 484.782798 271.422603 
L 485.237298 272.076141 
L 485.388798 273.550847 
L 485.540298 268.229717 
L 485.843298 273.809484 
L 486.297798 267.048574 
L 486.600798 273.680968 
L 486.903799 265.763209 
L 487.358299 265.029615 
L 487.509799 246.641127 
L 487.661299 266.549854 
L 487.812799 257.149312 
L 487.964299 264.155249 
L 488.418799 270.358882 
L 488.873299 264.193987 
L 489.024799 264.129656 
L 489.4793 263.706584 
L 489.6308 269.774899 
L 489.7823 268.526118 
L 489.9338 258.629182 
L 490.0853 270.752473 
L 490.5398 267.250911 
L 490.8428 271.643926 
L 490.9943 268.758281 
L 491.1458 272.33864 
L 491.600301 264.661608 
L 491.751801 258.718713 
L 491.903301 260.339743 
L 492.206301 265.14628 
L 492.660801 265.781618 
L 492.812301 269.938164 
L 492.963801 270.08114 
L 493.115301 260.480339 
L 493.266801 261.381247 
L 493.721302 232.377554 
L 493.872802 237.087216 
L 494.024302 255.988669 
L 494.327302 259.928118 
L 494.781802 260.231089 
L 495.084802 261.867863 
L 495.236302 255.887575 
L 495.387802 268.11135 
L 495.993803 267.563343 
L 496.145303 260.922628 
L 496.296803 266.186652 
L 496.448303 264.419404 
L 496.902803 268.278027 
L 497.205803 253.637583 
L 497.357303 234.479484 
L 497.508803 256.630707 
L 497.963303 262.818974 
L 498.114804 259.79187 
L 498.417804 257.460585 
L 498.569304 266.727195 
L 499.023804 253.751909 
L 499.175304 254.394882 
L 499.326804 265.911867 
L 499.478304 255.422372 
L 499.629804 254.903329 
L 500.084304 264.608566 
L 500.538805 248.716087 
L 500.690305 248.897078 
L 501.144805 255.064305 
L 501.447805 263.914035 
L 501.750805 251.801629 
L 502.205305 249.280087 
L 502.356805 261.095654 
L 502.659806 247.470882 
L 502.811306 248.594057 
L 503.265806 260.414603 
L 503.417306 249.395211 
L 503.720306 262.695747 
L 503.871806 261.691292 
L 504.326306 262.546013 
L 504.629306 256.71211 
L 504.780807 262.674207 
L 504.932307 258.358833 
L 505.386807 255.782668 
L 505.538307 248.729738 
L 505.689807 250.719738 
L 505.841307 245.896097 
L 505.992807 235.959618 
L 506.447307 276.347871 
L 506.598807 231.497646 
L 506.901807 249.665364 
L 507.053308 250.038773 
L 507.507808 250.032753 
L 507.659308 239.170234 
L 507.810808 259.946848 
L 507.962308 245.751854 
L 508.113808 257.594369 
L 508.871308 209.082032 
L 509.022808 247.401251 
L 509.174309 247.089494 
L 509.628809 265.301353 
L 509.780309 265.832478 
L 509.931809 258.391616 
L 510.083309 261.630195 
L 510.234809 243.096512 
L 510.689309 246.490932 
L 510.840809 253.402215 
L 510.992309 230.324409 
L 511.143809 255.239617 
L 511.295309 207.096189 
L 511.74981 249.787445 
L 512.05281 255.717828 
L 512.20431 244.988009 
L 512.35581 253.968683 
L 512.81031 249.1561 
L 512.96181 227.07239 
L 513.11331 249.111046 
L 513.41631 216.676208 
L 513.870811 250.506038 
L 514.173811 231.928405 
L 514.325311 220.174072 
L 514.476811 243.88805 
L 514.931311 259.987442 
L 515.082811 258.897496 
L 515.385811 232.632305 
L 515.537311 234.609438 
L 515.991812 236.131408 
L 516.143312 251.249644 
L 516.294812 251.104415 
L 516.446312 238.533992 
L 516.597812 246.551145 
L 517.052312 259.301749 
L 517.355312 253.324375 
L 517.506812 257.804131 
L 517.658312 256.826964 
L 518.112813 262.210951 
L 518.264313 259.384282 
L 518.567313 263.459961 
L 518.718813 255.143034 
L 519.173313 237.885661 
L 519.627813 265.181062 
L 520.233813 255.449945 
L 520.385314 262.591295 
L 520.536814 248.821828 
L 520.839814 231.670585 
L 521.294314 228.587289 
L 521.445814 241.507322 
L 521.597314 223.702347 
L 521.900314 238.452187 
L 522.657815 266.306809 
L 522.809315 265.261914 
L 522.960815 263.317792 
L 523.566815 265.232635 
L 523.718315 269.567552 
L 523.869815 270.305143 
L 524.021315 265.931969 
L 524.475815 265.136871 
L 524.627315 260.847934 
L 524.778816 263.279681 
L 524.930316 255.957309 
L 525.081816 264.999133 
L 525.536316 261.67108 
L 525.687816 235.391001 
L 525.839316 260.92776 
L 525.990816 264.246867 
L 526.142316 253.801811 
L 526.899816 262.896867 
L 527.051317 269.092483 
L 527.202817 264.885459 
L 527.657317 260.166802 
L 527.808817 255.113 
L 527.960317 261.806828 
L 528.111817 256.635086 
L 528.263317 260.339731 
L 528.717817 260.269363 
L 528.869317 257.988383 
L 529.020817 265.151354 
L 529.929818 255.663675 
L 530.081318 246.399498 
L 530.384318 257.977652 
L 530.838818 261.298697 
L 531.141818 259.695028 
L 531.293318 256.611946 
L 531.899319 263.495849 
L 532.050819 252.929466 
L 532.202319 265.253345 
L 532.353819 250.775561 
L 532.959819 251.338922 
L 533.111319 253.745277 
L 533.262819 260.890127 
L 533.414319 259.231189 
L 533.565819 265.065624 
L 534.02032 255.873168 
L 534.17182 245.950298 
L 534.32332 259.602039 
L 534.47482 259.052211 
L 534.62632 249.781253 
L 535.23232 249.320854 
L 535.38382 259.931939 
L 535.53532 260.006628 
L 535.68682 247.759666 
L 536.141321 252.264445 
L 536.292821 251.352973 
L 536.444321 248.098254 
L 536.747321 264.93789 
L 537.201821 262.299811 
L 537.353321 252.396332 
L 537.504821 255.457157 
L 537.656321 251.756966 
L 537.807821 257.324763 
L 538.262322 258.659577 
L 538.413822 265.409238 
L 538.565322 264.34183 
L 538.716822 260.857198 
L 538.868322 265.215052 
L 539.322822 264.34913 
L 539.474322 262.892459 
L 539.625822 238.94803 
L 539.928822 268.345875 
L 540.383322 268.238857 
L 540.534823 268.392734 
L 540.686323 269.094903 
L 540.837823 262.478077 
L 540.989323 266.978631 
L 541.443823 273.588712 
L 541.595323 262.496142 
L 541.746823 263.376349 
L 541.898323 251.483457 
L 542.049823 250.432234 
L 542.504323 250.398512 
L 542.655824 262.199787 
L 542.807324 259.272383 
L 542.958824 245.733594 
L 543.110324 262.291964 
L 543.564824 268.857247 
L 543.716324 266.171633 
L 543.867824 248.954273 
L 544.170824 257.451556 
L 544.625324 251.48606 
L 544.776824 213.537255 
L 545.231325 252.655395 
L 545.685825 252.665849 
L 545.837325 254.585363 
L 545.988825 250.692524 
L 546.140325 233.925797 
L 546.291825 256.632173 
L 546.746325 248.61599 
L 546.897825 238.691741 
L 547.049325 246.171705 
L 547.200826 237.423172 
L 547.352326 250.286015 
L 547.806826 251.863112 
L 547.958326 251.489781 
L 548.261326 236.575949 
L 548.412826 256.900648 
L 548.867326 248.303621 
L 549.018826 260.040062 
L 549.170326 250.60798 
L 549.321826 248.641337 
L 549.473327 248.738002 
L 549.927827 255.912321 
L 550.079327 251.286082 
L 550.230827 259.710152 
L 550.382327 250.860545 
L 550.533827 256.5396 
L 551.291327 262.663561 
L 551.442827 245.311206 
L 551.594328 261.277693 
L 552.048828 267.948342 
L 552.503328 252.738179 
L 552.654828 263.71372 
L 553.109328 262.024063 
L 553.260828 265.6936 
L 553.412328 263.611126 
L 553.563828 174.407715 
L 553.715328 236.518551 
L 554.321329 251.916866 
L 554.472829 247.627499 
L 554.624329 261.027044 
L 554.775829 259.419585 
L 555.230329 251.490526 
L 555.381829 244.505554 
L 555.533329 216.969896 
L 555.684829 249.804676 
L 555.836329 243.37545 
L 556.29083 231.995203 
L 556.59383 234.380036 
L 556.74533 246.706839 
L 556.89683 248.0581 
L 557.35133 245.289932 
L 557.50283 257.905235 
L 557.65433 252.506576 
L 557.80583 225.340684 
L 557.95733 263.152408 
L 558.563331 257.226863 
L 558.714831 238.205734 
L 559.017831 262.899997 
L 559.472331 262.126936 
L 559.623831 260.03784 
L 559.775331 253.817456 
L 559.926831 270.242927 
L 560.078331 260.901934 
L 560.532832 265.668634 
L 560.684332 268.887157 
L 560.835832 253.261542 
L 560.987332 263.048238 
L 561.138832 263.732733 
L 561.593332 255.811692 
L 561.896332 257.933885 
L 562.047832 238.733587 
L 562.199332 253.797323 
L 562.653832 257.818956 
L 562.956833 264.89329 
L 563.108333 264.974128 
L 563.259833 268.309281 
L 563.714333 264.13364 
L 563.865833 256.333885 
L 564.623333 284.073134 
L 564.774833 260.952445 
L 565.077834 255.628853 
L 565.229334 265.038918 
L 565.380834 251.607682 
L 565.986834 270.876013 
L 566.138334 263.980144 
L 566.289834 276.680823 
L 566.441334 272.710418 
L 567.047334 263.917777 
L 567.198835 263.741719 
L 567.350335 232.899667 
L 567.501835 255.242255 
L 568.107835 235.664057 
L 568.410835 254.72175 
L 568.562335 253.088422 
L 569.016835 258.867019 
L 569.168335 258.950082 
L 569.319835 255.666166 
L 569.471336 257.15496 
L 569.622836 237.635618 
L 570.077336 262.947076 
L 570.380336 249.171707 
L 570.683336 261.562134 
L 571.289336 269.170766 
L 571.440836 258.473583 
L 571.592336 225.154758 
L 571.743837 260.242949 
L 572.198337 264.626927 
L 572.501337 250.64938 
L 572.652837 259.958776 
L 572.804337 259.116788 
L 573.258837 250.957859 
L 573.410337 262.343913 
L 573.561837 261.669426 
L 573.713337 266.944859 
L 573.864837 257.38972 
L 574.319338 261.363463 
L 574.470838 252.085384 
L 574.622338 207.609707 
L 574.773838 243.909966 
L 574.925338 240.424556 
L 575.076838 262.955598 
L 575.531338 220.057873 
L 575.682838 232.006165 
L 575.834338 225.847036 
L 576.440339 233.931873 
L 576.591839 250.848989 
L 576.743339 228.056958 
L 576.894839 238.951803 
L 577.046339 233.890021 
L 577.500839 245.386266 
L 577.652339 259.498552 
L 577.955339 236.658921 
L 578.106839 243.758637 
L 578.56134 244.916482 
L 578.71284 248.626632 
L 578.86434 243.117109 
L 579.01584 243.474935 
L 579.16734 241.269232 
L 579.62184 262.763485 
L 579.77334 260.582457 
L 579.92484 256.208842 
L 580.07634 259.726382 
L 580.22784 255.954902 
L 580.682341 252.210814 
L 580.833841 262.946976 
L 580.985341 261.328332 
L 581.136841 200.322302 
L 581.288341 260.480161 
L 581.742841 262.812797 
L 581.894341 259.770709 
L 582.045841 239.598622 
L 582.197341 264.715741 
L 582.803341 255.364936 
L 582.954842 254.872482 
L 583.106342 243.97997 
L 583.257842 252.742453 
L 583.409342 233.528605 
L 583.863842 263.904925 
L 584.015342 264.591632 
L 584.166842 254.363384 
L 584.318342 264.056309 
L 584.469842 260.534174 
L 585.075843 260.619684 
L 585.378843 232.122052 
L 585.984843 266.691188 
L 586.136343 258.721787 
L 586.439343 235.95371 
L 586.590843 253.726631 
L 587.045343 245.794869 
L 587.196843 264.510294 
L 587.348344 248.431846 
L 587.651344 254.748058 
L 588.105844 256.50491 
L 588.257344 258.290105 
L 588.560344 258.241379 
L 588.711844 261.763211 
L 589.166344 259.639655 
L 589.469344 270.235554 
L 589.620845 233.829904 
L 589.772345 254.726579 
L 590.226845 235.49112 
L 590.378345 223.249927 
L 590.832845 252.327124 
L 591.287345 233.381438 
L 591.438845 251.140472 
L 591.590345 242.132612 
L 591.741846 244.254167 
L 591.893346 252.99134 
L 592.347846 252.666296 
L 592.499346 263.80322 
L 592.802346 252.815294 
L 593.105346 285.252197 
L 593.711346 255.251988 
L 593.862846 258.550851 
L 594.014347 266.542788 
L 594.468847 251.750748 
L 594.620347 263.283439 
L 594.771847 258.69084 
L 594.923347 263.95197 
L 595.074847 239.290365 
L 595.529347 215.108809 
L 595.680847 182.801828 
L 595.832347 199.994191 
L 596.135347 260.844223 
L 596.589848 256.720662 
L 596.741348 267.600411 
L 596.892848 254.143299 
L 597.044348 268.049692 
L 597.195848 263.314653 
L 597.801848 257.778042 
L 597.953348 218.007233 
L 598.104848 250.230226 
L 598.256348 241.582523 
L 598.710849 259.819597 
L 599.013849 253.729106 
L 599.165349 234.561552 
L 599.316849 248.825077 
L 599.771349 265.888593 
L 599.922849 256.899125 
L 600.074349 234.639623 
L 600.225849 261.909993 
L 600.377349 256.108486 
L 600.98335 264.918157 
L 601.13485 251.510268 
L 601.28635 266.008812 
L 601.43785 260.728729 
L 601.89235 258.277409 
L 602.04385 262.697176 
L 602.49835 266.683649 
L 602.952851 260.038296 
L 603.104351 254.781277 
L 603.255851 241.130672 
L 603.407351 257.912166 
L 603.558851 253.503979 
L 604.013351 205.338344 
L 604.164851 250.344726 
L 604.316351 252.962472 
L 604.467851 263.093339 
L 604.619351 262.022684 
L 605.073851 246.702466 
L 605.225352 262.044268 
L 605.376852 260.72688 
L 605.528352 268.190051 
L 605.679852 268.943838 
L 606.134352 261.931213 
L 606.437352 266.199432 
L 606.740352 267.24041 
L 607.194852 269.7242 
L 607.497853 259.142463 
L 607.800853 274.062662 
L 608.255353 272.148905 
L 608.558353 267.661533 
L 608.709853 265.149265 
L 608.861353 211.015414 
L 609.315853 264.094999 
L 609.467353 267.803886 
L 609.618854 262.551969 
L 609.770354 267.410422 
L 609.921854 258.306648 
L 610.376354 260.500674 
L 610.527854 269.088836 
L 610.679354 264.915909 
L 610.830854 267.691826 
L 610.982354 263.802335 
L 611.436854 273.206398 
L 611.588354 270.353284 
L 611.739854 255.210028 
L 611.891355 261.714334 
L 612.042855 244.420746 
L 612.497355 261.909759 
L 612.648855 257.234537 
L 612.800355 258.534136 
L 612.951855 260.800818 
L 613.103355 253.223985 
L 613.557855 257.603187 
L 613.709355 249.547145 
L 614.012355 244.34896 
L 614.163856 247.02518 
L 614.618356 235.241319 
L 614.769856 263.600248 
L 614.921356 238.259776 
L 615.072856 268.372663 
L 615.224356 270.6789 
L 615.678856 267.903101 
L 615.981856 273.101884 
L 616.133356 270.936705 
L 616.284856 265.885106 
L 616.739357 264.810202 
L 616.890857 255.400709 
L 617.042357 254.727612 
L 617.193857 260.593349 
L 617.345357 244.444713 
L 617.799857 216.02585 
L 617.951357 227.814912 
L 618.102857 248.336089 
L 618.254357 236.658565 
L 618.405857 280.06355 
L 618.860358 236.567797 
L 619.163358 252.952114 
L 619.314858 262.426466 
L 619.466358 262.951754 
L 619.920858 262.391321 
L 620.072358 267.123327 
L 620.223858 254.899176 
L 620.375358 266.723896 
L 620.981359 262.256926 
L 621.132859 258.340883 
L 621.435859 247.210315 
L 621.587359 258.72517 
L 622.041859 214.2657 
L 622.193359 270.080497 
L 622.496359 260.558408 
L 622.647859 265.796463 
L 623.10236 271.796591 
L 623.40536 251.418796 
L 623.55686 263.213688 
L 623.70836 254.52441 
L 624.16286 268.673881 
L 624.31436 268.671501 
L 624.46586 271.944131 
L 624.61736 272.285787 
L 624.76886 265.750058 
L 625.223361 274.503022 
L 625.526361 264.194594 
L 625.677861 264.775611 
L 625.829361 251.480817 
L 626.283861 270.447537 
L 626.435361 270.253764 
L 626.889861 275.728627 
L 627.344361 237.243429 
L 627.495862 271.348361 
L 627.647362 275.250551 
L 627.798862 266.640536 
L 628.404862 258.529167 
L 628.556362 271.582529 
L 628.707862 267.161596 
L 629.010862 265.350183 
L 629.465362 261.084317 
L 629.768363 264.909642 
L 629.919863 264.647859 
L 630.071363 267.255392 
L 630.525863 260.383818 
L 630.677363 266.594714 
L 630.828863 263.847542 
L 630.980363 268.229137 
L 631.131863 265.744248 
L 631.737863 239.885535 
L 631.889363 259.728589 
L 632.192364 250.863339 
L 632.343864 269.290063 
L 632.646864 268.50146 
L 632.798364 263.204941 
L 632.949864 264.288821 
L 633.101364 262.761761 
L 633.252864 259.476893 
L 633.707364 272.456003 
L 634.010364 266.306756 
L 634.161865 269.193601 
L 634.313365 267.248459 
L 634.919365 270.943137 
L 635.070865 270.059214 
L 635.222365 270.267727 
L 635.373865 272.953095 
L 635.828365 272.887848 
L 635.979865 271.125774 
L 636.282865 258.183588 
L 636.434366 241.861808 
L 636.888866 263.953896 
L 637.191866 267.707073 
L 637.343366 266.157155 
L 637.494866 271.22449 
L 637.949366 268.358803 
L 638.100866 252.421532 
L 638.252366 249.043459 
L 638.403866 264.788011 
L 639.009867 267.146392 
L 639.161367 264.677249 
L 639.312867 266.11808 
L 639.464367 269.656198 
L 639.615867 251.917497 
L 640.070367 259.199158 
L 640.221867 258.431024 
L 640.373367 263.651658 
L 640.524867 221.165243 
L 640.676367 260.700941 
L 641.282368 259.86536 
L 641.433868 264.134823 
L 641.585368 241.305362 
L 641.736868 257.718279 
L 642.191368 250.092688 
L 642.494368 265.446958 
L 642.797368 265.739965 
L 643.403369 255.430743 
L 643.554869 255.957183 
L 643.706369 240.693324 
L 644.312369 245.149794 
L 644.463869 243.613391 
L 644.766869 250.669866 
L 644.918369 254.298596 
L 645.37287 259.492466 
L 645.52437 257.023992 
L 645.67587 257.084779 
L 645.97887 263.442941 
L 646.43337 265.831392 
L 646.88787 239.52142 
L 647.03937 259.385776 
L 647.49387 256.104249 
L 647.645371 257.649066 
L 647.796871 264.900403 
L 648.099871 266.37509 
L 648.554371 266.048826 
L 648.705871 265.182151 
L 648.857371 269.055622 
L 649.008871 264.40615 
L 649.160371 273.996127 
L 649.614871 273.681415 
L 649.766371 264.866311 
L 649.917872 267.623402 
L 650.220872 242.938174 
L 650.675372 254.212 
L 650.826872 253.968603 
L 650.978372 263.879179 
L 651.129872 265.528864 
L 651.281372 232.276595 
L 652.038873 266.502003 
L 652.190373 266.499736 
L 652.341873 265.410514 
L 652.796373 270.95872 
L 652.947873 271.18115 
L 653.250873 267.136027 
L 653.402373 262.261381 
L 653.856873 274.331565 
L 654.008373 266.875423 
L 654.159873 272.415117 
L 654.462874 249.899869 
L 654.917374 258.790412 
L 655.068874 242.579478 
L 655.220374 260.953407 
L 655.371874 264.137238 
L 655.523374 273.193394 
L 656.129374 271.312454 
L 656.280874 273.63806 
L 656.432374 271.877851 
L 656.583875 272.921019 
L 657.038375 268.476404 
L 657.189875 268.22849 
L 657.341375 262.300932 
L 657.492875 267.390316 
L 657.644375 265.533993 
L 658.401875 267.387482 
L 658.553375 259.302167 
L 658.704876 268.148747 
L 659.159376 264.817034 
L 659.310876 264.909773 
L 659.462376 265.792396 
L 659.613876 258.819649 
L 659.765376 272.38047 
L 660.219876 267.172191 
L 660.371376 271.277049 
L 660.522876 269.356625 
L 660.674376 272.932277 
L 660.825876 272.640605 
L 661.280377 271.363453 
L 661.431877 276.297163 
L 661.583377 275.422021 
L 661.734877 276.372791 
L 662.340877 271.923447 
L 662.643877 277.19803 
L 662.795377 276.995123 
L 662.946877 275.895197 
L 663.401378 275.453731 
L 663.552878 268.352164 
L 663.855878 266.65233 
L 664.007378 271.572297 
L 664.461878 275.749388 
L 664.613378 275.830203 
L 664.916378 268.963227 
L 665.067878 275.447793 
L 665.522379 276.038064 
L 665.825379 269.464448 
L 666.128379 275.413803 
L 666.582879 276.72223 
L 666.734379 272.417434 
L 666.885879 263.258688 
L 667.037379 266.653434 
L 667.188879 257.654094 
L 667.64338 269.188087 
L 667.79488 260.693008 
L 667.94638 260.567201 
L 668.09788 262.758713 
L 668.24938 267.725975 
L 668.70388 253.073845 
L 668.85538 254.927344 
L 669.00688 260.404087 
L 669.30988 263.010494 
L 669.76438 262.076907 
L 669.915881 263.514843 
L 670.218881 269.286807 
L 670.370381 262.026297 
L 670.824881 268.404761 
L 670.976381 267.377171 
L 671.127881 268.370134 
L 671.279381 264.345761 
L 671.430881 264.578478 
L 671.885381 233.134478 
L 672.036881 282.064762 
L 672.339882 241.241255 
L 672.491382 267.015789 
L 672.945882 263.630474 
L 673.097382 246.975043 
L 673.248882 263.821151 
L 673.551882 238.596159 
L 674.157882 261.120081 
L 674.460883 260.818001 
L 674.612383 265.34419 
L 675.218383 269.034667 
L 675.369883 264.238412 
L 675.521383 268.767152 
L 675.672883 269.807471 
L 676.127383 262.913961 
L 676.278883 264.84017 
L 676.430383 264.146942 
L 676.581884 268.964889 
L 676.733384 268.744852 
L 677.187884 257.592042 
L 677.339384 266.159339 
L 677.490884 265.706662 
L 677.642384 266.089917 
L 677.793884 272.197027 
L 678.248384 268.592326 
L 678.399884 254.889476 
L 678.702884 270.650964 
L 678.854385 269.052114 
L 679.460385 266.091241 
L 679.611885 271.365916 
L 679.763385 272.695097 
L 679.914885 270.954899 
L 680.369385 268.123754 
L 680.520885 268.428604 
L 680.672385 266.915089 
L 680.823885 272.620897 
L 680.975385 259.42448 
L 681.732886 275.024087 
L 682.035886 276.578816 
L 682.490386 271.082916 
L 682.641886 240.56896 
L 682.944886 270.563306 
L 682.944886 270.563306 
" clip-path="url(#p0385e4bf09)" style="fill: none; stroke: #1f77b4; stroke-width: 1.5; stroke-linecap: square"/>
   </g>
   <g id="patch_3">
    <path d="M 43.78125 299.518125 
L 43.78125 22.318125 
" style="fill: none; stroke: #000000; stroke-width: 0.8; stroke-linejoin: miter; stroke-linecap: square"/>
   </g>
   <g id="patch_4">
    <path d="M 713.38125 299.518125 
L 713.38125 22.318125 
" style="fill: none; stroke: #000000; stroke-width: 0.8; stroke-linejoin: miter; stroke-linecap: square"/>
   </g>
   <g id="patch_5">
    <path d="M 43.78125 299.518125 
L 713.38125 299.518125 
" style="fill: none; stroke: #000000; stroke-width: 0.8; stroke-linejoin: miter; stroke-linecap: square"/>
   </g>
   <g id="patch_6">
    <path d="M 43.78125 22.318125 
L 713.38125 22.318125 
" style="fill: none; stroke: #000000; stroke-width: 0.8; stroke-linejoin: miter; stroke-linecap: square"/>
   </g>
   <g id="text_19">
    <!-- Trading Volume Over Time -->
    <g transform="translate(299.420625 16.318125) scale(0.12 -0.12)">
     <defs>
      <path id="DejaVuSans-69" d="M 603 3500 
L 1178 3500 
L 1178 0 
L 603 0 
L 603 3500 
z
M 603 4863 
L 1178 4863 
L 1178 4134 
L 603 4134 
L 603 4863 
z
" transform="scale(0.015625)"/>
      <path id="DejaVuSans-6e" d="M 3513 2113 
L 3513 0 
L 2938 0 
L 2938 2094 
Q 2938 2591 2744 2837 
Q 2550 3084 2163 3084 
Q 1697 3084 1428 2787 
Q 1159 2491 1159 1978 
L 1159 0 
L 581 0 
L 581 3500 
L 1159 3500 
L 1159 2956 
Q 1366 3272 1645 3428 
Q 1925 3584 2291 3584 
Q 2894 3584 3203 3211 
Q 3513 2838 3513 2113 
z
" transform="scale(0.015625)"/>
      <path id="DejaVuSans-67" d="M 2906 1791 
Q 2906 2416 2648 2759 
Q 2391 3103 1925 3103 
Q 1463 3103 1205 2759 
Q 947 2416 947 1791 
Q 947 1169 1205 825 
Q 1463 481 1925 481 
Q 2391 481 2648 825 
Q 2906 1169 2906 1791 
z
M 3481 434 
Q 3481 -459 3084 -895 
Q 2688 -1331 1869 -1331 
Q 1566 -1331 1297 -1286 
Q 1028 -1241 775 -1147 
L 775 -588 
Q 1028 -725 1275 -790 
Q 1522 -856 1778 -856 
Q 2344 -856 2625 -561 
Q 2906 -266 2906 331 
L 2906 616 
Q 2728 306 2450 153 
Q 2172 0 1784 0 
Q 1141 0 747 490 
Q 353 981 353 1791 
Q 353 2603 747 3093 
Q 1141 3584 1784 3584 
Q 2172 3584 2450 3431 
Q 2728 3278 2906 2969 
L 2906 3500 
L 3481 3500 
L 3481 434 
z
" transform="scale(0.015625)"/>
      <path id="DejaVuSans-56" d="M 1831 0 
L 50 4666 
L 709 4666 
L 2188 738 
L 3669 4666 
L 4325 4666 
L 2547 0 
L 1831 0 
z
" transform="scale(0.015625)"/>
      <path id="DejaVuSans-6f" d="M 1959 3097 
Q 1497 3097 1228 2736 
Q 959 2375 959 1747 
Q 959 1119 1226 758 
Q 1494 397 1959 397 
Q 2419 397 2687 759 
Q 2956 1122 2956 1747 
Q 2956 2369 2687 2733 
Q 2419 3097 1959 3097 
z
M 1959 3584 
Q 2709 3584 3137 3096 
Q 3566 2609 3566 1747 
Q 3566 888 3137 398 
Q 2709 -91 1959 -91 
Q 1206 -91 779 398 
Q 353 888 353 1747 
Q 353 2609 779 3096 
Q 1206 3584 1959 3584 
z
" transform="scale(0.015625)"/>
      <path id="DejaVuSans-6c" d="M 603 4863 
L 1178 4863 
L 1178 0 
L 603 0 
L 603 4863 
z
" transform="scale(0.015625)"/>
      <path id="DejaVuSans-75" d="M 544 1381 
L 544 3500 
L 1119 3500 
L 1119 1403 
Q 1119 906 1312 657 
Q 1506 409 1894 409 
Q 2359 409 2629 706 
Q 2900 1003 2900 1516 
L 2900 3500 
L 3475 3500 
L 3475 0 
L 2900 0 
L 2900 538 
Q 2691 219 2414 64 
Q 2138 -91 1772 -91 
Q 1169 -91 856 284 
Q 544 659 544 1381 
z
M 1991 3584 
L 1991 3584 
z
" transform="scale(0.015625)"/>
      <path id="DejaVuSans-6d" d="M 3328 2828 
Q 3544 3216 3844 3400 
Q 4144 3584 4550 3584 
Q 5097 3584 5394 3201 
Q 5691 2819 5691 2113 
L 5691 0 
L 5113 0 
L 5113 2094 
Q 5113 2597 4934 2840 
Q 4756 3084 4391 3084 
Q 3944 3084 3684 2787 
Q 3425 2491 3425 1978 
L 3425 0 
L 2847 0 
L 2847 2094 
Q 2847 2600 2669 2842 
Q 2491 3084 2119 3084 
Q 1678 3084 1418 2786 
Q 1159 2488 1159 1978 
L 1159 0 
L 581 0 
L 581 3500 
L 1159 3500 
L 1159 2956 
Q 1356 3278 1631 3431 
Q 1906 3584 2284 3584 
Q 2666 3584 2933 3390 
Q 3200 3197 3328 2828 
z
" transform="scale(0.015625)"/>
      <path id="DejaVuSans-4f" d="M 2522 4238 
Q 1834 4238 1429 3725 
Q 1025 3213 1025 2328 
Q 1025 1447 1429 934 
Q 1834 422 2522 422 
Q 3209 422 3611 934 
Q 4013 1447 4013 2328 
Q 4013 3213 3611 3725 
Q 3209 4238 2522 4238 
z
M 2522 4750 
Q 3503 4750 4090 4092 
Q 4678 3434 4678 2328 
Q 4678 1225 4090 567 
Q 3503 -91 2522 -91 
Q 1538 -91 948 565 
Q 359 1222 359 2328 
Q 359 3434 948 4092 
Q 1538 4750 2522 4750 
z
" transform="scale(0.015625)"/>
      <path id="DejaVuSans-76" d="M 191 3500 
L 800 3500 
L 1894 563 
L 2988 3500 
L 3597 3500 
L 2284 0 
L 1503 0 
L 191 3500 
z
" transform="scale(0.015625)"/>
     </defs>
     <use xlink:href="#DejaVuSans-54"/>
     <use xlink:href="#DejaVuSans-72" transform="translate(46.333984 0)"/>
     <use xlink:href="#DejaVuSans-61" transform="translate(87.447266 0)"/>
     <use xlink:href="#DejaVuSans-64" transform="translate(148.726562 0)"/>
     <use xlink:href="#DejaVuSans-69" transform="translate(212.203125 0)"/>
     <use xlink:href="#DejaVuSans-6e" transform="translate(239.986328 0)"/>
     <use xlink:href="#DejaVuSans-67" transform="translate(303.365234 0)"/>
     <use xlink:href="#DejaVuSans-20" transform="translate(366.841797 0)"/>
     <use xlink:href="#DejaVuSans-56" transform="translate(398.628906 0)"/>
     <use xlink:href="#DejaVuSans-6f" transform="translate(459.287109 0)"/>
     <use xlink:href="#DejaVuSans-6c" transform="translate(520.46875 0)"/>
     <use xlink:href="#DejaVuSans-75" transform="translate(548.251953 0)"/>
     <use xlink:href="#DejaVuSans-6d" transform="translate(611.630859 0)"/>
     <use xlink:href="#DejaVuSans-65" transform="translate(709.042969 0)"/>
     <use xlink:href="#DejaVuSans-20" transform="translate(770.566406 0)"/>
     <use xlink:href="#DejaVuSans-4f" transform="translate(802.353516 0)"/>
     <use xlink:href="#DejaVuSans-76" transform="translate(881.064453 0)"/>
     <use xlink:href="#DejaVuSans-65" transform="translate(940.244141 0)"/>
     <use xlink:href="#DejaVuSans-72" transform="translate(1001.767578 0)"/>
     <use xlink:href="#DejaVuSans-20" transform="translate(1042.880859 0)"/>
     <use xlink:href="#DejaVuSans-54" transform="translate(1074.667969 0)"/>
     <use xlink:href="#DejaVuSans-69" transform="translate(1132.626953 0)"/>
     <use xlink:href="#DejaVuSans-6d" transform="translate(1160.410156 0)"/>
     <use xlink:href="#DejaVuSans-65" transform="translate(1257.822266 0)"/>
    </g>
   </g>
  </g>
 </g>
 <defs>
  <clipPath id="p0385e4bf09">
   <rect x="43.78125" y="22.318125" width="669.6" height="277.2"/>
  </clipPath>
 </defs>
</svg>
